<mxfile host="65bd71144e">
    <diagram id="42x2nOH-SCaOJn2GfkoF" name="Page-1">
        <mxGraphModel dx="2123" dy="1030" grid="0" gridSize="10" guides="1" tooltips="1" connect="1" arrows="1" fold="1" page="1" pageScale="1" pageWidth="1920" pageHeight="1200" math="0" shadow="0">
            <root>
                <mxCell id="0"/>
                <mxCell id="1" parent="0"/>
                <mxCell id="162" value="" style="rounded=0;whiteSpace=wrap;html=1;fontSize=30;fillColor=#a20025;fontColor=#ffffff;strokeColor=#6F0000;" vertex="1" parent="1">
                    <mxGeometry x="66" y="948" width="419" height="211" as="geometry"/>
                </mxCell>
                <UserObject label="I" lucidchartObjectId="cvz2gJF-U5E6" id="MBEcm7a6iqswmfyhpiFw-1">
                    <mxCell style="html=1;overflow=block;blockSpacing=1;whiteSpace=wrap;ellipse;fontSize=16.7;spacing=3.8;strokeOpacity=100;rounded=1;absoluteArcSize=1;arcSize=9;strokeWidth=0.8;fillColor=none;" parent="1" vertex="1">
                        <mxGeometry x="642" y="67" width="39" height="39" as="geometry"/>
                    </mxCell>
                </UserObject>
                <UserObject label="&quot;Ingrese un número&quot;" lucidchartObjectId="nvz2XC8rZMKO" id="MBEcm7a6iqswmfyhpiFw-2">
                    <mxCell style="html=1;overflow=block;blockSpacing=1;whiteSpace=wrap;shape=trapezoid;perimeter=trapezoidPerimeter;anchorPointDirection=0;flipV=1;fontSize=16.7;spacing=3.8;strokeOpacity=100;rounded=1;absoluteArcSize=1;arcSize=9;strokeWidth=0.8;direction=west;fillColor=none;" parent="1" vertex="1">
                        <mxGeometry x="584" y="144" width="154" height="58" as="geometry"/>
                    </mxCell>
                </UserObject>
                <UserObject label="" lucidchartObjectId="Bvz29Sg1vhUw" id="MBEcm7a6iqswmfyhpiFw-3">
                    <mxCell style="html=1;jettySize=18;whiteSpace=wrap;fontSize=13;strokeOpacity=100;strokeWidth=0.8;rounded=1;arcSize=12;edgeStyle=orthogonalEdgeStyle;startArrow=none;endArrow=block;endFill=1;exitX=0.5;exitY=1.01;exitPerimeter=0;entryX=0.5;entryY=1.006;entryPerimeter=0;fillColor=none;" parent="1" source="MBEcm7a6iqswmfyhpiFw-1" target="MBEcm7a6iqswmfyhpiFw-2" edge="1">
                        <mxGeometry width="100" height="100" relative="1" as="geometry">
                            <Array as="points"/>
                        </mxGeometry>
                    </mxCell>
                </UserObject>
                <UserObject label="A" lucidchartObjectId="bwz2ocgL6izW" id="MBEcm7a6iqswmfyhpiFw-4">
                    <mxCell style="html=1;overflow=block;blockSpacing=1;whiteSpace=wrap;shape=trapezoid;perimeter=trapezoidPerimeter;anchorPointDirection=0;flipV=1;fontSize=16.7;spacing=3.8;strokeOpacity=100;rounded=1;absoluteArcSize=1;arcSize=9;strokeWidth=0.8;fillColor=none;" parent="1" vertex="1">
                        <mxGeometry x="623" y="231" width="77" height="58" as="geometry"/>
                    </mxCell>
                </UserObject>
                <UserObject label="" lucidchartObjectId="wwz28kP~cnBi" id="MBEcm7a6iqswmfyhpiFw-5">
                    <mxCell style="html=1;jettySize=18;whiteSpace=wrap;fontSize=13;strokeOpacity=100;strokeWidth=0.8;rounded=1;arcSize=12;edgeStyle=orthogonalEdgeStyle;startArrow=none;endArrow=block;endFill=1;exitX=0.5;exitY=-0.006000000000000005;exitPerimeter=0;entryX=0.5;entryY=1.006;entryPerimeter=0;fillColor=none;" parent="1" source="MBEcm7a6iqswmfyhpiFw-2" target="MBEcm7a6iqswmfyhpiFw-4" edge="1">
                        <mxGeometry width="100" height="100" relative="1" as="geometry">
                            <Array as="points"/>
                        </mxGeometry>
                    </mxCell>
                </UserObject>
                <UserObject label="" lucidchartObjectId="wwz2i85GWHMy" id="MBEcm7a6iqswmfyhpiFw-6">
                    <mxCell style="html=1;jettySize=18;whiteSpace=wrap;fontSize=13;strokeOpacity=100;strokeWidth=0.8;rounded=1;arcSize=12;edgeStyle=orthogonalEdgeStyle;startArrow=none;endArrow=block;endFill=1;exitX=0.5;exitY=-0.006000000000000005;exitPerimeter=0;entryX=0.5;entryY=1.006;entryPerimeter=0;fillColor=none;" parent="1" source="MBEcm7a6iqswmfyhpiFw-4" target="MBEcm7a6iqswmfyhpiFw-7" edge="1">
                        <mxGeometry width="100" height="100" relative="1" as="geometry">
                            <Array as="points"/>
                        </mxGeometry>
                    </mxCell>
                </UserObject>
                <UserObject label="&quot;Ingrese otro número&quot;" lucidchartObjectId="Bwz2Q1siUwiB" id="MBEcm7a6iqswmfyhpiFw-7">
                    <mxCell style="html=1;overflow=block;blockSpacing=1;whiteSpace=wrap;shape=trapezoid;perimeter=trapezoidPerimeter;anchorPointDirection=0;flipV=1;fontSize=16.7;spacing=3.8;strokeOpacity=100;rounded=1;absoluteArcSize=1;arcSize=9;strokeWidth=0.8;direction=west;fillColor=none;" parent="1" vertex="1">
                        <mxGeometry x="581" y="327" width="161" height="58" as="geometry"/>
                    </mxCell>
                </UserObject>
                <UserObject label="B" lucidchartObjectId="Owz2hU3pB6x2" id="MBEcm7a6iqswmfyhpiFw-8">
                    <mxCell style="html=1;overflow=block;blockSpacing=1;whiteSpace=wrap;shape=trapezoid;perimeter=trapezoidPerimeter;anchorPointDirection=0;flipV=1;fontSize=16.7;spacing=3.8;strokeOpacity=100;rounded=1;absoluteArcSize=1;arcSize=9;strokeWidth=0.8;fillColor=none;" parent="1" vertex="1">
                        <mxGeometry x="623" y="414" width="77" height="58" as="geometry"/>
                    </mxCell>
                </UserObject>
                <UserObject label="" lucidchartObjectId="Swz2A~Zc-~4K" id="MBEcm7a6iqswmfyhpiFw-9">
                    <mxCell style="html=1;jettySize=18;whiteSpace=wrap;fontSize=13;strokeOpacity=100;strokeWidth=0.8;rounded=1;arcSize=12;edgeStyle=orthogonalEdgeStyle;startArrow=none;endArrow=block;endFill=1;exitX=0.5;exitY=-0.006000000000000005;exitPerimeter=0;entryX=0.5;entryY=1.006;entryPerimeter=0;fillColor=none;" parent="1" source="MBEcm7a6iqswmfyhpiFw-7" target="MBEcm7a6iqswmfyhpiFw-8" edge="1">
                        <mxGeometry width="100" height="100" relative="1" as="geometry">
                            <Array as="points"/>
                        </mxGeometry>
                    </mxCell>
                </UserObject>
                <UserObject label="newA = B" lucidchartObjectId="GFz2ORVjjUEJ" id="MBEcm7a6iqswmfyhpiFw-10">
                    <mxCell style="html=1;overflow=block;blockSpacing=1;whiteSpace=wrap;fontSize=16.7;spacing=9;strokeOpacity=100;rounded=1;absoluteArcSize=1;arcSize=9;strokeWidth=0.8;fillColor=none;" parent="1" vertex="1">
                        <mxGeometry x="601" y="502" width="120" height="64" as="geometry"/>
                    </mxCell>
                </UserObject>
                <UserObject label="newB = A" lucidchartObjectId="QFz2X8VBtsIa" id="MBEcm7a6iqswmfyhpiFw-11">
                    <mxCell style="html=1;overflow=block;blockSpacing=1;whiteSpace=wrap;fontSize=16.7;spacing=9;strokeOpacity=100;rounded=1;absoluteArcSize=1;arcSize=9;strokeWidth=0.8;fillColor=none;" parent="1" vertex="1">
                        <mxGeometry x="601" y="598" width="120" height="64" as="geometry"/>
                    </mxCell>
                </UserObject>
                <UserObject label="" lucidchartObjectId="eGz23SfKLj9K" id="MBEcm7a6iqswmfyhpiFw-12">
                    <mxCell style="html=1;jettySize=18;whiteSpace=wrap;fontSize=13;strokeOpacity=100;strokeWidth=0.8;rounded=1;arcSize=12;edgeStyle=orthogonalEdgeStyle;startArrow=none;endArrow=block;endFill=1;exitX=0.5;exitY=-0.006000000000000005;exitPerimeter=0;entryX=0.5;entryY=-0.006;entryPerimeter=0;fillColor=none;" parent="1" source="MBEcm7a6iqswmfyhpiFw-8" target="MBEcm7a6iqswmfyhpiFw-10" edge="1">
                        <mxGeometry width="100" height="100" relative="1" as="geometry">
                            <Array as="points"/>
                        </mxGeometry>
                    </mxCell>
                </UserObject>
                <UserObject label="" lucidchartObjectId="fGz2VDchSo77" id="MBEcm7a6iqswmfyhpiFw-13">
                    <mxCell style="html=1;jettySize=18;whiteSpace=wrap;fontSize=13;strokeOpacity=100;strokeWidth=0.8;rounded=1;arcSize=12;edgeStyle=orthogonalEdgeStyle;startArrow=none;endArrow=block;endFill=1;exitX=0.5;exitY=1.006;exitPerimeter=0;entryX=0.5;entryY=-0.006;entryPerimeter=0;fillColor=none;" parent="1" source="MBEcm7a6iqswmfyhpiFw-10" target="MBEcm7a6iqswmfyhpiFw-11" edge="1">
                        <mxGeometry width="100" height="100" relative="1" as="geometry">
                            <Array as="points"/>
                        </mxGeometry>
                    </mxCell>
                </UserObject>
                <UserObject label="&quot;El nuevo valor de A es: &quot;, newA" lucidchartObjectId="4Gz2lIqmwRM8" id="MBEcm7a6iqswmfyhpiFw-14">
                    <mxCell style="html=1;overflow=block;blockSpacing=1;whiteSpace=wrap;shape=trapezoid;perimeter=trapezoidPerimeter;anchorPointDirection=0;flipV=1;fontSize=16.7;spacing=3.8;strokeOpacity=100;rounded=1;absoluteArcSize=1;arcSize=9;strokeWidth=0.8;direction=west;fillColor=none;" parent="1" vertex="1">
                        <mxGeometry x="478" y="697" width="366" height="75" as="geometry"/>
                    </mxCell>
                </UserObject>
                <UserObject label="&quot;El nuevo valor de B es: &quot;, newB" lucidchartObjectId="vHz2r_s.u~rS" id="MBEcm7a6iqswmfyhpiFw-15">
                    <mxCell style="html=1;overflow=block;blockSpacing=1;whiteSpace=wrap;shape=trapezoid;perimeter=trapezoidPerimeter;anchorPointDirection=0;flipV=1;fontSize=16.7;spacing=3.8;strokeOpacity=100;rounded=1;absoluteArcSize=1;arcSize=9;strokeWidth=0.8;direction=west;fillColor=none;" parent="1" vertex="1">
                        <mxGeometry x="468" y="807" width="386" height="75" as="geometry"/>
                    </mxCell>
                </UserObject>
                <UserObject label="" lucidchartObjectId="VHz2VPX.2VQU" id="MBEcm7a6iqswmfyhpiFw-16">
                    <mxCell style="html=1;jettySize=18;whiteSpace=wrap;fontSize=13;strokeOpacity=100;strokeWidth=0.8;rounded=1;arcSize=12;edgeStyle=orthogonalEdgeStyle;startArrow=none;endArrow=block;endFill=1;exitX=0.5;exitY=1.006;exitPerimeter=0;entryX=0.5;entryY=1.005;entryPerimeter=0;fillColor=none;" parent="1" source="MBEcm7a6iqswmfyhpiFw-11" target="MBEcm7a6iqswmfyhpiFw-14" edge="1">
                        <mxGeometry width="100" height="100" relative="1" as="geometry">
                            <Array as="points"/>
                        </mxGeometry>
                    </mxCell>
                </UserObject>
                <UserObject label="" lucidchartObjectId="1Hz2GL5DbmUK" id="MBEcm7a6iqswmfyhpiFw-17">
                    <mxCell style="html=1;jettySize=18;whiteSpace=wrap;fontSize=13;strokeOpacity=100;strokeWidth=0.8;rounded=1;arcSize=12;edgeStyle=orthogonalEdgeStyle;startArrow=none;endArrow=block;endFill=1;exitX=0.5;exitY=-0.004999999999999893;exitPerimeter=0;entryX=0.5;entryY=1.005;entryPerimeter=0;fillColor=none;" parent="1" source="MBEcm7a6iqswmfyhpiFw-14" target="MBEcm7a6iqswmfyhpiFw-15" edge="1">
                        <mxGeometry width="100" height="100" relative="1" as="geometry">
                            <Array as="points"/>
                        </mxGeometry>
                    </mxCell>
                </UserObject>
                <UserObject label="F" lucidchartObjectId="9Hz2Ew72xg~6" id="MBEcm7a6iqswmfyhpiFw-18">
                    <mxCell style="html=1;overflow=block;blockSpacing=1;whiteSpace=wrap;ellipse;fontSize=16.7;spacing=3.8;strokeOpacity=100;rounded=1;absoluteArcSize=1;arcSize=9;strokeWidth=0.8;fillColor=none;" parent="1" vertex="1">
                        <mxGeometry x="642" y="916" width="39" height="39" as="geometry"/>
                    </mxCell>
                </UserObject>
                <UserObject label="" lucidchartObjectId="aIz2F8neAQ9K" id="MBEcm7a6iqswmfyhpiFw-19">
                    <mxCell style="html=1;jettySize=18;whiteSpace=wrap;fontSize=13;strokeOpacity=100;strokeWidth=0.8;rounded=1;arcSize=12;edgeStyle=orthogonalEdgeStyle;startArrow=none;endArrow=block;endFill=1;exitX=0.5;exitY=-0.004999999999999893;exitPerimeter=0;entryX=0.5;entryY=-0.01;entryPerimeter=0;fillColor=none;" parent="1" source="MBEcm7a6iqswmfyhpiFw-15" target="MBEcm7a6iqswmfyhpiFw-18" edge="1">
                        <mxGeometry width="100" height="100" relative="1" as="geometry">
                            <Array as="points"/>
                        </mxGeometry>
                    </mxCell>
                </UserObject>
                <UserObject label="2)" lucidchartObjectId="vIz2Y8cUTemB" id="MBEcm7a6iqswmfyhpiFw-20">
                    <mxCell style="html=1;overflow=block;blockSpacing=1;whiteSpace=wrap;fontSize=16.7;fontStyle=1;spacing=3.8;strokeOpacity=0;fillOpacity=100;rounded=1;absoluteArcSize=1;arcSize=9;fillColor=#eeeeee;strokeWidth=0.8;strokeColor=#36393d;fontColor=#000000;" parent="1" vertex="1">
                        <mxGeometry x="479" y="37" width="45" height="39" as="geometry"/>
                    </mxCell>
                </UserObject>
                <UserObject label="&lt;font color=&quot;#000000&quot;&gt;1)&lt;/font&gt;" lucidchartObjectId="nJz2FS3Vk8pQ" id="MBEcm7a6iqswmfyhpiFw-21">
                    <mxCell style="html=1;overflow=block;blockSpacing=1;whiteSpace=wrap;fontSize=16.7;fontStyle=1;spacing=3.8;strokeOpacity=0;fillOpacity=100;rounded=1;absoluteArcSize=1;arcSize=9;fillColor=#eeeeee;strokeWidth=0.8;sketch=0;strokeColor=#36393d;" parent="1" vertex="1">
                        <mxGeometry x="74" y="37" width="45" height="39" as="geometry"/>
                    </mxCell>
                </UserObject>
                <UserObject label="I" lucidchartObjectId="xJz2ayTAY_dk" id="MBEcm7a6iqswmfyhpiFw-22">
                    <mxCell style="html=1;overflow=block;blockSpacing=1;whiteSpace=wrap;ellipse;fontSize=16.7;spacing=3.8;strokeOpacity=100;rounded=1;absoluteArcSize=1;arcSize=9;strokeWidth=0.8;fillColor=none;" parent="1" vertex="1">
                        <mxGeometry x="215" y="63" width="39" height="39" as="geometry"/>
                    </mxCell>
                </UserObject>
                <UserObject label="&quot;Ingrese la cantidad de horas trabajadas&quot;" lucidchartObjectId="RJz2UatKy.kw" id="MBEcm7a6iqswmfyhpiFw-23">
                    <mxCell style="html=1;overflow=block;blockSpacing=1;whiteSpace=wrap;shape=trapezoid;perimeter=trapezoidPerimeter;anchorPointDirection=0;flipV=1;fontSize=16.7;spacing=3.8;strokeOpacity=100;rounded=1;absoluteArcSize=1;arcSize=9;strokeWidth=0.8;shadow=0;expand=1;fillOpacity=100;noLabel=0;direction=west;fillColor=none;" parent="1" vertex="1">
                        <mxGeometry x="81" y="138" width="306" height="92" as="geometry"/>
                    </mxCell>
                </UserObject>
                <UserObject label="horasTrabajadas" lucidchartObjectId="sKz2tOlFhEny" id="MBEcm7a6iqswmfyhpiFw-24">
                    <mxCell style="html=1;overflow=block;blockSpacing=1;whiteSpace=wrap;shape=trapezoid;perimeter=trapezoidPerimeter;anchorPointDirection=0;flipV=1;fontSize=16.7;spacing=3.8;strokeOpacity=100;rounded=1;absoluteArcSize=1;arcSize=9;strokeWidth=0.8;fillColor=none;" parent="1" vertex="1">
                        <mxGeometry x="140" y="255" width="190" height="53" as="geometry"/>
                    </mxCell>
                </UserObject>
                <UserObject label="&quot;Ingrese el monto del valor hora&quot;" lucidchartObjectId="TKz21Wmr3lkM" id="MBEcm7a6iqswmfyhpiFw-25">
                    <mxCell style="html=1;overflow=block;blockSpacing=1;whiteSpace=wrap;shape=trapezoid;perimeter=trapezoidPerimeter;anchorPointDirection=0;flipV=1;fontSize=16.7;spacing=3.8;strokeOpacity=100;rounded=1;absoluteArcSize=1;arcSize=9;strokeWidth=0.8;direction=west;fillColor=none;" parent="1" vertex="1">
                        <mxGeometry x="64" y="344" width="340" height="80" as="geometry"/>
                    </mxCell>
                </UserObject>
                <UserObject label="valorHora" lucidchartObjectId="6Kz2bZgcw_Ec" id="MBEcm7a6iqswmfyhpiFw-26">
                    <mxCell style="html=1;overflow=block;blockSpacing=1;whiteSpace=wrap;shape=trapezoid;perimeter=trapezoidPerimeter;anchorPointDirection=0;flipV=1;fontSize=16.7;spacing=3.8;strokeOpacity=100;rounded=1;absoluteArcSize=1;arcSize=9;strokeWidth=0.8;fillColor=none;" parent="1" vertex="1">
                        <mxGeometry x="140" y="460" width="190" height="53" as="geometry"/>
                    </mxCell>
                </UserObject>
                <UserObject label="sueldo = valorHora * horasTrabajadas" lucidchartObjectId="cLz2dLCEHPfR" id="MBEcm7a6iqswmfyhpiFw-27">
                    <mxCell style="html=1;overflow=block;blockSpacing=1;whiteSpace=wrap;fontSize=16.7;spacing=9;strokeOpacity=100;rounded=1;absoluteArcSize=1;arcSize=9;strokeWidth=0.8;fillColor=none;" parent="1" vertex="1">
                        <mxGeometry x="74" y="558" width="321" height="70" as="geometry"/>
                    </mxCell>
                </UserObject>
                <UserObject label="" lucidchartObjectId="6Lz2unZ7ZpWQ" id="MBEcm7a6iqswmfyhpiFw-28">
                    <mxCell style="html=1;jettySize=18;whiteSpace=wrap;fontSize=13;strokeOpacity=100;strokeWidth=0.8;rounded=1;arcSize=12;edgeStyle=orthogonalEdgeStyle;startArrow=none;endArrow=block;endFill=1;exitX=0.5;exitY=-0.004999999999999893;exitPerimeter=0;entryX=0.5;entryY=1.007;entryPerimeter=0;fillColor=none;" parent="1" source="MBEcm7a6iqswmfyhpiFw-23" target="MBEcm7a6iqswmfyhpiFw-24" edge="1">
                        <mxGeometry width="100" height="100" relative="1" as="geometry">
                            <Array as="points"/>
                        </mxGeometry>
                    </mxCell>
                </UserObject>
                <UserObject label="" lucidchartObjectId="9Lz2qHkRTxmi" id="MBEcm7a6iqswmfyhpiFw-29">
                    <mxCell style="html=1;jettySize=18;whiteSpace=wrap;fontSize=13;strokeOpacity=100;strokeWidth=0.8;rounded=1;arcSize=12;edgeStyle=orthogonalEdgeStyle;startArrow=none;endArrow=block;endFill=1;exitX=0.5;exitY=-0.006999999999999895;exitPerimeter=0;entryX=0.5;entryY=1.005;entryPerimeter=0;fillColor=none;" parent="1" source="MBEcm7a6iqswmfyhpiFw-24" target="MBEcm7a6iqswmfyhpiFw-25" edge="1">
                        <mxGeometry width="100" height="100" relative="1" as="geometry">
                            <Array as="points"/>
                        </mxGeometry>
                    </mxCell>
                </UserObject>
                <UserObject label="" lucidchartObjectId="-Lz2E_itap-U" id="MBEcm7a6iqswmfyhpiFw-30">
                    <mxCell style="html=1;jettySize=18;whiteSpace=wrap;fontSize=13;strokeOpacity=100;strokeWidth=0.8;rounded=1;arcSize=12;edgeStyle=orthogonalEdgeStyle;startArrow=none;endArrow=block;endFill=1;exitX=0.5;exitY=-0.004999999999999893;exitPerimeter=0;entryX=0.5;entryY=1.007;entryPerimeter=0;fillColor=none;" parent="1" source="MBEcm7a6iqswmfyhpiFw-25" target="MBEcm7a6iqswmfyhpiFw-26" edge="1">
                        <mxGeometry width="100" height="100" relative="1" as="geometry">
                            <Array as="points"/>
                        </mxGeometry>
                    </mxCell>
                </UserObject>
                <UserObject label="" lucidchartObjectId="~Lz27C~O_TAn" id="MBEcm7a6iqswmfyhpiFw-31">
                    <mxCell style="html=1;jettySize=18;whiteSpace=wrap;fontSize=13;strokeOpacity=100;strokeWidth=0.8;rounded=1;arcSize=12;edgeStyle=orthogonalEdgeStyle;startArrow=none;endArrow=block;endFill=1;exitX=0.5;exitY=-0.006999999999999895;exitPerimeter=0;entryX=0.5;entryY=-0.005;entryPerimeter=0;fillColor=none;" parent="1" source="MBEcm7a6iqswmfyhpiFw-26" target="MBEcm7a6iqswmfyhpiFw-27" edge="1">
                        <mxGeometry width="100" height="100" relative="1" as="geometry">
                            <Array as="points"/>
                        </mxGeometry>
                    </mxCell>
                </UserObject>
                <UserObject label="" lucidchartObjectId="kMz2HOOgEQJD" id="MBEcm7a6iqswmfyhpiFw-32">
                    <mxCell style="html=1;jettySize=18;whiteSpace=wrap;fontSize=13;strokeOpacity=100;strokeWidth=0.8;rounded=1;arcSize=12;edgeStyle=orthogonalEdgeStyle;startArrow=none;endArrow=block;endFill=1;exitX=0.5;exitY=1.01;exitPerimeter=0;entryX=0.5;entryY=1.005;entryPerimeter=0;fillColor=none;" parent="1" source="MBEcm7a6iqswmfyhpiFw-22" target="MBEcm7a6iqswmfyhpiFw-23" edge="1">
                        <mxGeometry width="100" height="100" relative="1" as="geometry">
                            <Array as="points"/>
                        </mxGeometry>
                    </mxCell>
                </UserObject>
                <UserObject label="&quot;El sueldo que le corresponde al empleado es de: &quot;, sueldo" lucidchartObjectId="EMz24yNW8C1N" id="MBEcm7a6iqswmfyhpiFw-33">
                    <mxCell style="html=1;overflow=block;blockSpacing=1;whiteSpace=wrap;shape=trapezoid;perimeter=trapezoidPerimeter;anchorPointDirection=0;flipV=1;fontSize=16.7;spacing=3.8;strokeOpacity=100;rounded=1;absoluteArcSize=1;arcSize=9;strokeWidth=0.8;direction=west;labelPadding=0;metaEdit=0;shadow=0;sketch=0;fillColor=none;" parent="1" vertex="1">
                        <mxGeometry x="75" y="674" width="319" height="106" as="geometry"/>
                    </mxCell>
                </UserObject>
                <UserObject label="" lucidchartObjectId="7Mz2GyPxLTfY" id="MBEcm7a6iqswmfyhpiFw-34">
                    <mxCell style="html=1;jettySize=18;whiteSpace=wrap;fontSize=13;strokeOpacity=100;strokeWidth=0.8;rounded=1;arcSize=12;edgeStyle=orthogonalEdgeStyle;startArrow=none;endArrow=block;endFill=1;exitX=0.5;exitY=1.005;exitPerimeter=0;entryX=0.5;entryY=1.005;entryPerimeter=0;fillColor=none;" parent="1" source="MBEcm7a6iqswmfyhpiFw-27" target="MBEcm7a6iqswmfyhpiFw-33" edge="1">
                        <mxGeometry width="100" height="100" relative="1" as="geometry">
                            <Array as="points"/>
                        </mxGeometry>
                    </mxCell>
                </UserObject>
                <UserObject label="3)" lucidchartObjectId="jNz2pfY5zjdN" id="MBEcm7a6iqswmfyhpiFw-35">
                    <mxCell style="html=1;overflow=block;blockSpacing=1;whiteSpace=wrap;fontSize=16.7;fontStyle=1;spacing=3.8;strokeOpacity=0;fillOpacity=100;rounded=1;absoluteArcSize=1;arcSize=9;fillColor=#eeeeee;strokeWidth=0.8;strokeColor=#36393d;fontColor=#000000;" parent="1" vertex="1">
                        <mxGeometry x="874" y="37" width="45" height="39" as="geometry"/>
                    </mxCell>
                </UserObject>
                <UserObject label="I" lucidchartObjectId="ANz2Vwc_Z9QB" id="MBEcm7a6iqswmfyhpiFw-36">
                    <mxCell style="html=1;overflow=block;blockSpacing=1;whiteSpace=wrap;ellipse;fontSize=16.7;spacing=3.8;strokeOpacity=100;rounded=1;absoluteArcSize=1;arcSize=9;strokeWidth=0.8;fillColor=none;" parent="1" vertex="1">
                        <mxGeometry x="1127" y="67" width="39" height="39" as="geometry"/>
                    </mxCell>
                </UserObject>
                <UserObject label="sueldoFijo = 15000" lucidchartObjectId="sOz2ZedWcEBf" id="MBEcm7a6iqswmfyhpiFw-37">
                    <mxCell style="html=1;overflow=block;blockSpacing=1;whiteSpace=wrap;fontSize=16.7;spacing=9;strokeOpacity=100;rounded=1;absoluteArcSize=1;arcSize=9;strokeWidth=0.8;fillColor=none;" parent="1" vertex="1">
                        <mxGeometry x="1056" y="142" width="180" height="60" as="geometry"/>
                    </mxCell>
                </UserObject>
                <UserObject label="" lucidchartObjectId="1Oz2FY9fS_Xq" id="MBEcm7a6iqswmfyhpiFw-38">
                    <mxCell style="html=1;jettySize=18;whiteSpace=wrap;fontSize=13;strokeOpacity=100;strokeWidth=0.8;rounded=1;arcSize=12;edgeStyle=orthogonalEdgeStyle;startArrow=none;endArrow=block;endFill=1;exitX=0.5;exitY=1.01;exitPerimeter=0;entryX=0.5;entryY=-0.006;entryPerimeter=0;fillColor=none;" parent="1" source="MBEcm7a6iqswmfyhpiFw-36" target="MBEcm7a6iqswmfyhpiFw-37" edge="1">
                        <mxGeometry width="100" height="100" relative="1" as="geometry">
                            <Array as="points"/>
                        </mxGeometry>
                    </mxCell>
                </UserObject>
                <UserObject label="premioPorAutoVendido = 2000" lucidchartObjectId="bPz2bOZtEY8A" id="MBEcm7a6iqswmfyhpiFw-39">
                    <mxCell style="html=1;overflow=block;blockSpacing=1;whiteSpace=wrap;fontSize=16.7;spacing=9;strokeOpacity=100;rounded=1;absoluteArcSize=1;arcSize=9;strokeWidth=0.8;fillColor=none;" parent="1" vertex="1">
                        <mxGeometry x="1013" y="231" width="266" height="60" as="geometry"/>
                    </mxCell>
                </UserObject>
                <UserObject label="" lucidchartObjectId="HPz2IplzK90z" id="MBEcm7a6iqswmfyhpiFw-40">
                    <mxCell style="html=1;jettySize=18;whiteSpace=wrap;fontSize=13;strokeOpacity=100;strokeWidth=0.8;rounded=1;arcSize=12;edgeStyle=orthogonalEdgeStyle;startArrow=none;endArrow=block;endFill=1;exitX=0.5;exitY=1.006;exitPerimeter=0;entryX=0.5;entryY=-0.006;entryPerimeter=0;fillColor=none;" parent="1" source="MBEcm7a6iqswmfyhpiFw-37" target="MBEcm7a6iqswmfyhpiFw-39" edge="1">
                        <mxGeometry width="100" height="100" relative="1" as="geometry">
                            <Array as="points"/>
                        </mxGeometry>
                    </mxCell>
                </UserObject>
                <UserObject label="&quot;Ingrese la cantidad de autos vendidos&quot;" lucidchartObjectId="RPz2.Q-Whqlh" id="MBEcm7a6iqswmfyhpiFw-41">
                    <mxCell style="html=1;overflow=block;blockSpacing=1;whiteSpace=wrap;shape=trapezoid;perimeter=trapezoidPerimeter;anchorPointDirection=0;flipV=1;fontSize=16.7;spacing=3.8;strokeOpacity=100;rounded=1;absoluteArcSize=1;arcSize=9;strokeWidth=0.8;direction=west;fillColor=none;" parent="1" vertex="1">
                        <mxGeometry x="1000" y="314" width="292" height="86" as="geometry"/>
                    </mxCell>
                </UserObject>
                <UserObject label="cantidadAutosVendidos" lucidchartObjectId="RPz28uGjj~8f" id="MBEcm7a6iqswmfyhpiFw-42">
                    <mxCell style="html=1;overflow=block;blockSpacing=1;whiteSpace=wrap;shape=trapezoid;perimeter=trapezoidPerimeter;anchorPointDirection=0;flipV=1;fontSize=16.7;spacing=3.8;strokeOpacity=100;rounded=1;absoluteArcSize=1;arcSize=9;strokeWidth=0.8;fillColor=none;" parent="1" vertex="1">
                        <mxGeometry x="1013" y="425" width="266" height="58" as="geometry"/>
                    </mxCell>
                </UserObject>
                <UserObject label="" lucidchartObjectId="RPz2ko-i6-Sg" id="MBEcm7a6iqswmfyhpiFw-43">
                    <mxCell style="html=1;jettySize=18;whiteSpace=wrap;fontSize=13;strokeOpacity=100;strokeWidth=0.8;rounded=1;arcSize=12;edgeStyle=orthogonalEdgeStyle;startArrow=none;endArrow=block;endFill=1;exitX=0.5;exitY=-0.006000000000000005;exitPerimeter=0;entryX=0.5;entryY=1.006;entryPerimeter=0;fillColor=none;" parent="1" source="MBEcm7a6iqswmfyhpiFw-41" target="MBEcm7a6iqswmfyhpiFw-42" edge="1">
                        <mxGeometry width="100" height="100" relative="1" as="geometry">
                            <Array as="points"/>
                        </mxGeometry>
                    </mxCell>
                </UserObject>
                <UserObject label="" lucidchartObjectId="uQz2KdpME5.J" id="MBEcm7a6iqswmfyhpiFw-44">
                    <mxCell style="html=1;jettySize=18;whiteSpace=wrap;fontSize=13;strokeOpacity=100;strokeWidth=0.8;rounded=1;arcSize=12;edgeStyle=orthogonalEdgeStyle;startArrow=none;endArrow=block;endFill=1;exitX=0.5;exitY=1.006;exitPerimeter=0;entryX=0.5;entryY=1.006;entryPerimeter=0;fillColor=none;" parent="1" source="MBEcm7a6iqswmfyhpiFw-39" target="MBEcm7a6iqswmfyhpiFw-41" edge="1">
                        <mxGeometry width="100" height="100" relative="1" as="geometry">
                            <Array as="points"/>
                        </mxGeometry>
                    </mxCell>
                </UserObject>
                <UserObject label="sueldoTotal = sueldoFijo + (cantidadAutosVendidos * premioPorAutoVendido)" lucidchartObjectId="~Qz2FM_85RRL" id="MBEcm7a6iqswmfyhpiFw-45">
                    <mxCell style="html=1;overflow=block;blockSpacing=1;whiteSpace=wrap;fontSize=16.7;spacing=9;strokeOpacity=100;rounded=1;absoluteArcSize=1;arcSize=9;strokeWidth=0.8;fillColor=none;" parent="1" vertex="1">
                        <mxGeometry x="913" y="511" width="466" height="118" as="geometry"/>
                    </mxCell>
                </UserObject>
                <UserObject label="" lucidchartObjectId="4Rz2PiEg.fQA" id="MBEcm7a6iqswmfyhpiFw-46">
                    <mxCell style="html=1;jettySize=18;whiteSpace=wrap;fontSize=13;strokeOpacity=100;strokeWidth=0.8;rounded=1;arcSize=12;edgeStyle=orthogonalEdgeStyle;startArrow=none;endArrow=block;endFill=1;exitX=0.5;exitY=-0.006000000000000005;exitPerimeter=0;entryX=0.5;entryY=-0.003;entryPerimeter=0;fillColor=none;" parent="1" source="MBEcm7a6iqswmfyhpiFw-42" target="MBEcm7a6iqswmfyhpiFw-45" edge="1">
                        <mxGeometry width="100" height="100" relative="1" as="geometry">
                            <Array as="points"/>
                        </mxGeometry>
                    </mxCell>
                </UserObject>
                <UserObject label="&quot;El sueldo total del vendedor es de: &quot;, sueldoTotal" lucidchartObjectId="SSz2DDg5QypF" id="MBEcm7a6iqswmfyhpiFw-47">
                    <mxCell style="html=1;overflow=block;blockSpacing=1;whiteSpace=wrap;shape=trapezoid;perimeter=trapezoidPerimeter;anchorPointDirection=0;flipV=1;fontSize=16.7;spacing=3.8;strokeOpacity=100;rounded=1;absoluteArcSize=1;arcSize=9;strokeWidth=0.8;direction=west;fillColor=none;" parent="1" vertex="1">
                        <mxGeometry x="894" y="667" width="505" height="90" as="geometry"/>
                    </mxCell>
                </UserObject>
                <UserObject label="" lucidchartObjectId="vTz2aM2N2GcT" id="MBEcm7a6iqswmfyhpiFw-48">
                    <mxCell style="html=1;jettySize=18;whiteSpace=wrap;fontSize=13;strokeOpacity=100;strokeWidth=0.8;rounded=1;arcSize=12;edgeStyle=orthogonalEdgeStyle;startArrow=none;endArrow=block;endFill=1;exitX=0.5;exitY=1.003;exitPerimeter=0;entryX=0.5;entryY=1.004;entryPerimeter=0;fillColor=none;" parent="1" source="MBEcm7a6iqswmfyhpiFw-45" target="MBEcm7a6iqswmfyhpiFw-47" edge="1">
                        <mxGeometry width="100" height="100" relative="1" as="geometry">
                            <Array as="points"/>
                        </mxGeometry>
                    </mxCell>
                </UserObject>
                <UserObject label="F" lucidchartObjectId="aUz2wOBtIh75" id="MBEcm7a6iqswmfyhpiFw-49">
                    <mxCell style="html=1;overflow=block;blockSpacing=1;whiteSpace=wrap;ellipse;fontSize=16.7;spacing=3.8;strokeOpacity=100;rounded=1;absoluteArcSize=1;arcSize=9;strokeWidth=0.8;fillColor=none;" parent="1" vertex="1">
                        <mxGeometry x="215" y="820" width="39" height="39" as="geometry"/>
                    </mxCell>
                </UserObject>
                <UserObject label="F" lucidchartObjectId="dUz2ZRtFeJ2u" id="MBEcm7a6iqswmfyhpiFw-50">
                    <mxCell style="html=1;overflow=block;blockSpacing=1;whiteSpace=wrap;ellipse;fontSize=16.7;spacing=3.8;strokeOpacity=100;rounded=1;absoluteArcSize=1;arcSize=9;strokeWidth=0.8;fillColor=none;" parent="1" vertex="1">
                        <mxGeometry x="1127" y="787" width="39" height="39" as="geometry"/>
                    </mxCell>
                </UserObject>
                <UserObject label="" lucidchartObjectId="iUz2Re2aMjMH" id="MBEcm7a6iqswmfyhpiFw-51">
                    <mxCell style="html=1;jettySize=18;whiteSpace=wrap;fontSize=13;strokeOpacity=100;strokeWidth=0.8;rounded=1;arcSize=12;edgeStyle=orthogonalEdgeStyle;startArrow=none;endArrow=block;endFill=1;exitX=0.5;exitY=-0.004999999999999893;exitPerimeter=0;entryX=0.5;entryY=-0.01;entryPerimeter=0;fillColor=none;" parent="1" source="MBEcm7a6iqswmfyhpiFw-33" target="MBEcm7a6iqswmfyhpiFw-49" edge="1">
                        <mxGeometry width="100" height="100" relative="1" as="geometry">
                            <Array as="points"/>
                        </mxGeometry>
                    </mxCell>
                </UserObject>
                <UserObject label="" lucidchartObjectId="kUz2IntB3KCa" id="MBEcm7a6iqswmfyhpiFw-52">
                    <mxCell style="html=1;jettySize=18;whiteSpace=wrap;fontSize=13;strokeOpacity=100;strokeWidth=0.8;rounded=1;arcSize=12;edgeStyle=orthogonalEdgeStyle;startArrow=none;endArrow=block;endFill=1;exitX=0.5;exitY=-0.0040000000000000036;exitPerimeter=0;entryX=0.5;entryY=-0.01;entryPerimeter=0;fillColor=none;" parent="1" source="MBEcm7a6iqswmfyhpiFw-47" target="MBEcm7a6iqswmfyhpiFw-50" edge="1">
                        <mxGeometry width="100" height="100" relative="1" as="geometry">
                            <Array as="points"/>
                        </mxGeometry>
                    </mxCell>
                </UserObject>
                <mxCell id="MBEcm7a6iqswmfyhpiFw-63" value="" style="edgeStyle=orthogonalEdgeStyle;curved=0;rounded=1;sketch=0;orthogonalLoop=1;jettySize=auto;html=1;fillColor=none;" parent="1" source="MBEcm7a6iqswmfyhpiFw-53" target="MBEcm7a6iqswmfyhpiFw-62" edge="1">
                    <mxGeometry relative="1" as="geometry"/>
                </mxCell>
                <UserObject label="I" lucidchartObjectId="NjA2taPWawUD" id="MBEcm7a6iqswmfyhpiFw-53">
                    <mxCell style="html=1;overflow=block;blockSpacing=1;whiteSpace=wrap;ellipse;fontSize=16.7;spacing=3.8;strokeOpacity=100;rounded=1;absoluteArcSize=1;arcSize=9;strokeWidth=0.8;fillColor=none;" parent="1" vertex="1">
                        <mxGeometry x="1635" y="63" width="39" height="39" as="geometry"/>
                    </mxCell>
                </UserObject>
                <UserObject label="4)" lucidchartObjectId="jNz2pfY5zjdN" id="MBEcm7a6iqswmfyhpiFw-61">
                    <mxCell style="html=1;overflow=block;blockSpacing=1;whiteSpace=wrap;fontSize=16.7;fontStyle=1;spacing=3.8;strokeOpacity=0;fillOpacity=100;rounded=1;absoluteArcSize=1;arcSize=9;fillColor=#eeeeee;strokeWidth=0.8;strokeColor=#36393d;fontColor=#000000;" parent="1" vertex="1">
                        <mxGeometry x="1417" y="37" width="45" height="39" as="geometry"/>
                    </mxCell>
                </UserObject>
                <mxCell id="MBEcm7a6iqswmfyhpiFw-67" value="" style="edgeStyle=orthogonalEdgeStyle;curved=0;rounded=1;sketch=0;orthogonalLoop=1;jettySize=auto;html=1;fontSize=16.7;fillColor=none;" parent="1" source="MBEcm7a6iqswmfyhpiFw-62" target="MBEcm7a6iqswmfyhpiFw-64" edge="1">
                    <mxGeometry relative="1" as="geometry"/>
                </mxCell>
                <UserObject label="&quot;Ingrese la cantidad de asientos disponibles&quot;" lucidchartObjectId="RPz2.Q-Whqlh" id="MBEcm7a6iqswmfyhpiFw-62">
                    <mxCell style="html=1;overflow=visible;blockSpacing=1;whiteSpace=wrap;shape=trapezoid;perimeter=trapezoidPerimeter;anchorPointDirection=0;flipV=1;fontSize=16.7;spacing=3.8;strokeOpacity=100;rounded=0;absoluteArcSize=1;arcSize=9;strokeWidth=0.8;direction=west;fillColor=none;" parent="1" vertex="1">
                        <mxGeometry x="1488.75" y="132.42" width="331.5" height="98.58" as="geometry"/>
                    </mxCell>
                </UserObject>
                <mxCell id="MBEcm7a6iqswmfyhpiFw-69" value="" style="edgeStyle=orthogonalEdgeStyle;curved=0;rounded=1;sketch=0;orthogonalLoop=1;jettySize=auto;html=1;fontSize=16.7;fillColor=none;" parent="1" source="MBEcm7a6iqswmfyhpiFw-64" target="MBEcm7a6iqswmfyhpiFw-68" edge="1">
                    <mxGeometry relative="1" as="geometry"/>
                </mxCell>
                <mxCell id="MBEcm7a6iqswmfyhpiFw-64" value="cantidadDisponibles" style="shape=trapezoid;perimeter=trapezoidPerimeter;whiteSpace=wrap;html=1;fixedSize=1;rounded=0;shadow=0;sketch=0;direction=west;overflow=visible;fontSize=16.7;fillColor=none;" parent="1" vertex="1">
                    <mxGeometry x="1547" y="261" width="215" height="60" as="geometry"/>
                </mxCell>
                <mxCell id="MBEcm7a6iqswmfyhpiFw-71" value="" style="edgeStyle=orthogonalEdgeStyle;curved=0;rounded=1;sketch=0;orthogonalLoop=1;jettySize=auto;html=1;fontSize=16.7;fillColor=none;" parent="1" source="MBEcm7a6iqswmfyhpiFw-68" target="MBEcm7a6iqswmfyhpiFw-70" edge="1">
                    <mxGeometry relative="1" as="geometry"/>
                </mxCell>
                <UserObject label="&quot;Ingrese la cantidad de asientos vendidos&quot;" lucidchartObjectId="RPz2.Q-Whqlh" id="MBEcm7a6iqswmfyhpiFw-68">
                    <mxCell style="html=1;overflow=visible;blockSpacing=1;whiteSpace=wrap;shape=trapezoid;perimeter=trapezoidPerimeter;anchorPointDirection=0;flipV=1;fontSize=16.7;spacing=3.8;strokeOpacity=100;rounded=0;absoluteArcSize=1;arcSize=9;strokeWidth=0.8;direction=west;fillColor=none;" parent="1" vertex="1">
                        <mxGeometry x="1534.88" y="351" width="239.25" height="80" as="geometry"/>
                    </mxCell>
                </UserObject>
                <mxCell id="MBEcm7a6iqswmfyhpiFw-76" value="" style="edgeStyle=orthogonalEdgeStyle;curved=0;rounded=1;sketch=0;orthogonalLoop=1;jettySize=auto;html=1;fontSize=16.7;fillColor=none;" parent="1" source="MBEcm7a6iqswmfyhpiFw-70" target="MBEcm7a6iqswmfyhpiFw-75" edge="1">
                    <mxGeometry relative="1" as="geometry"/>
                </mxCell>
                <mxCell id="MBEcm7a6iqswmfyhpiFw-70" value="cantidadVendidos" style="shape=trapezoid;perimeter=trapezoidPerimeter;whiteSpace=wrap;html=1;fixedSize=1;rounded=0;shadow=0;sketch=0;direction=west;overflow=visible;fontSize=16.7;fillColor=none;" parent="1" vertex="1">
                    <mxGeometry x="1547.01" y="456.5" width="215" height="60" as="geometry"/>
                </mxCell>
                <mxCell id="MBEcm7a6iqswmfyhpiFw-80" value="" style="edgeStyle=orthogonalEdgeStyle;curved=0;rounded=1;sketch=0;orthogonalLoop=1;jettySize=auto;html=1;fontSize=16.7;fillColor=none;" parent="1" source="MBEcm7a6iqswmfyhpiFw-75" target="MBEcm7a6iqswmfyhpiFw-77" edge="1">
                    <mxGeometry relative="1" as="geometry"/>
                </mxCell>
                <mxCell id="MBEcm7a6iqswmfyhpiFw-75" value="noOcupados = cantidadDisponibles - cantidadVendidos" style="rounded=0;whiteSpace=wrap;html=1;shadow=0;sketch=0;fontSize=16.7;" parent="1" vertex="1">
                    <mxGeometry x="1432.01" y="544" width="445" height="79" as="geometry"/>
                </mxCell>
                <mxCell id="MBEcm7a6iqswmfyhpiFw-81" value="" style="edgeStyle=orthogonalEdgeStyle;curved=0;rounded=1;sketch=0;orthogonalLoop=1;jettySize=auto;html=1;fontSize=16.7;fillColor=none;" parent="1" source="MBEcm7a6iqswmfyhpiFw-77" target="MBEcm7a6iqswmfyhpiFw-79" edge="1">
                    <mxGeometry relative="1" as="geometry"/>
                </mxCell>
                <mxCell id="MBEcm7a6iqswmfyhpiFw-77" value="porcentajeOcupacion = cantidadVendidos * 100 / cantidadDisponibles" style="rounded=0;whiteSpace=wrap;html=1;shadow=0;sketch=0;fontSize=16.7;fillColor=none;" parent="1" vertex="1">
                    <mxGeometry x="1459.02" y="651" width="390.98" height="103" as="geometry"/>
                </mxCell>
                <mxCell id="MBEcm7a6iqswmfyhpiFw-84" value="" style="edgeStyle=orthogonalEdgeStyle;curved=0;rounded=1;sketch=0;orthogonalLoop=1;jettySize=auto;html=1;fontSize=16.7;fillColor=none;" parent="1" source="MBEcm7a6iqswmfyhpiFw-79" target="MBEcm7a6iqswmfyhpiFw-82" edge="1">
                    <mxGeometry relative="1" as="geometry"/>
                </mxCell>
                <mxCell id="MBEcm7a6iqswmfyhpiFw-79" value="porcentajeNoOcupacion = 100 - porcentajeOcupacion" style="rounded=0;whiteSpace=wrap;html=1;shadow=0;sketch=0;fontSize=16.7;fillColor=none;" parent="1" vertex="1">
                    <mxGeometry x="1477" y="785" width="355" height="103" as="geometry"/>
                </mxCell>
                <mxCell id="MBEcm7a6iqswmfyhpiFw-85" value="" style="edgeStyle=orthogonalEdgeStyle;curved=0;rounded=1;sketch=0;orthogonalLoop=1;jettySize=auto;html=1;fontSize=16.7;fillColor=none;" parent="1" source="MBEcm7a6iqswmfyhpiFw-82" target="MBEcm7a6iqswmfyhpiFw-83" edge="1">
                    <mxGeometry relative="1" as="geometry"/>
                </mxCell>
                <mxCell id="MBEcm7a6iqswmfyhpiFw-82" value="&quot;Porcentaje de ocupación: &quot;, porcentajeOcupacion" style="shape=trapezoid;perimeter=trapezoidPerimeter;whiteSpace=wrap;html=1;fixedSize=1;rounded=0;shadow=0;sketch=0;fontSize=16.7;fillColor=none;" parent="1" vertex="1">
                    <mxGeometry x="1475.38" y="922" width="358.25" height="81" as="geometry"/>
                </mxCell>
                <mxCell id="MBEcm7a6iqswmfyhpiFw-87" value="" style="edgeStyle=orthogonalEdgeStyle;curved=0;rounded=1;sketch=0;orthogonalLoop=1;jettySize=auto;html=1;fontSize=16.7;fillColor=none;" parent="1" source="MBEcm7a6iqswmfyhpiFw-83" target="MBEcm7a6iqswmfyhpiFw-86" edge="1">
                    <mxGeometry relative="1" as="geometry"/>
                </mxCell>
                <mxCell id="MBEcm7a6iqswmfyhpiFw-83" value="&quot;Porcentaje de no ocupación: &quot;, porcentajeNoOcupacion" style="shape=trapezoid;perimeter=trapezoidPerimeter;whiteSpace=wrap;html=1;fixedSize=1;rounded=0;shadow=0;sketch=0;fontSize=16.7;fillColor=none;" parent="1" vertex="1">
                    <mxGeometry x="1475.39" y="1031" width="358.25" height="81" as="geometry"/>
                </mxCell>
                <mxCell id="MBEcm7a6iqswmfyhpiFw-86" value="F" style="ellipse;whiteSpace=wrap;html=1;aspect=fixed;rounded=1;shadow=0;sketch=0;fontSize=16.7;fillColor=none;" parent="1" vertex="1">
                    <mxGeometry x="1632.02" y="1137" width="45" height="45" as="geometry"/>
                </mxCell>
                <UserObject label="5)" lucidchartObjectId="jNz2pfY5zjdN" id="MBEcm7a6iqswmfyhpiFw-88">
                    <mxCell style="html=1;overflow=block;blockSpacing=1;whiteSpace=wrap;fontSize=16.7;fontStyle=1;spacing=3.8;strokeOpacity=0;fillOpacity=100;rounded=1;absoluteArcSize=1;arcSize=0;fillColor=#eeeeee;strokeWidth=0.8;strokeColor=#36393d;fontColor=#000000;" parent="1" vertex="1">
                        <mxGeometry x="2019" y="37" width="45" height="39" as="geometry"/>
                    </mxCell>
                </UserObject>
                <mxCell id="SHrXoLm5jMl1KSt1BzP1-21" value="" style="edgeStyle=orthogonalEdgeStyle;rounded=0;orthogonalLoop=1;jettySize=auto;html=1;" parent="1" source="MBEcm7a6iqswmfyhpiFw-91" target="SHrXoLm5jMl1KSt1BzP1-1" edge="1">
                    <mxGeometry relative="1" as="geometry"/>
                </mxCell>
                <mxCell id="MBEcm7a6iqswmfyhpiFw-91" value="I" style="ellipse;whiteSpace=wrap;html=1;aspect=fixed;rounded=1;shadow=0;sketch=0;fontSize=16.7;" parent="1" vertex="1">
                    <mxGeometry x="2181" y="60" width="45" height="45" as="geometry"/>
                </mxCell>
                <mxCell id="SHrXoLm5jMl1KSt1BzP1-42" style="edgeStyle=orthogonalEdgeStyle;rounded=0;orthogonalLoop=1;jettySize=auto;html=1;exitX=0.5;exitY=1;exitDx=0;exitDy=0;" parent="1" source="SHrXoLm5jMl1KSt1BzP1-1" target="SHrXoLm5jMl1KSt1BzP1-33" edge="1">
                    <mxGeometry relative="1" as="geometry"/>
                </mxCell>
                <mxCell id="SHrXoLm5jMl1KSt1BzP1-1" value="&quot;Ingrese la cantidad vendida de ALFAJORES A&quot;" style="shape=trapezoid;perimeter=trapezoidPerimeter;whiteSpace=wrap;html=1;fixedSize=1;rounded=0;" parent="1" vertex="1">
                    <mxGeometry x="2094.23" y="132.42" width="218.55" height="64" as="geometry"/>
                </mxCell>
                <mxCell id="SHrXoLm5jMl1KSt1BzP1-32" value="" style="edgeStyle=orthogonalEdgeStyle;rounded=0;orthogonalLoop=1;jettySize=auto;html=1;" parent="1" source="SHrXoLm5jMl1KSt1BzP1-33" target="SHrXoLm5jMl1KSt1BzP1-38" edge="1">
                    <mxGeometry relative="1" as="geometry"/>
                </mxCell>
                <mxCell id="SHrXoLm5jMl1KSt1BzP1-33" value="alfajoresA" style="shape=trapezoid;perimeter=trapezoidPerimeter;whiteSpace=wrap;html=1;fixedSize=1;rounded=0;direction=west;" parent="1" vertex="1">
                    <mxGeometry x="2141" y="221" width="125" height="42" as="geometry"/>
                </mxCell>
                <mxCell id="SHrXoLm5jMl1KSt1BzP1-34" value="" style="edgeStyle=orthogonalEdgeStyle;rounded=0;orthogonalLoop=1;jettySize=auto;html=1;" parent="1" source="SHrXoLm5jMl1KSt1BzP1-35" target="SHrXoLm5jMl1KSt1BzP1-40" edge="1">
                    <mxGeometry relative="1" as="geometry"/>
                </mxCell>
                <mxCell id="SHrXoLm5jMl1KSt1BzP1-35" value="alfajoresB" style="shape=trapezoid;perimeter=trapezoidPerimeter;whiteSpace=wrap;html=1;fixedSize=1;rounded=0;direction=west;" parent="1" vertex="1">
                    <mxGeometry x="2141.01" y="380" width="125" height="39" as="geometry"/>
                </mxCell>
                <mxCell id="SHrXoLm5jMl1KSt1BzP1-55" style="edgeStyle=orthogonalEdgeStyle;rounded=0;orthogonalLoop=1;jettySize=auto;html=1;exitX=0.5;exitY=0;exitDx=0;exitDy=0;entryX=0.5;entryY=0;entryDx=0;entryDy=0;" parent="1" source="SHrXoLm5jMl1KSt1BzP1-36" target="SHrXoLm5jMl1KSt1BzP1-43" edge="1">
                    <mxGeometry relative="1" as="geometry"/>
                </mxCell>
                <mxCell id="SHrXoLm5jMl1KSt1BzP1-36" value="alfajoresC" style="shape=trapezoid;perimeter=trapezoidPerimeter;whiteSpace=wrap;html=1;fixedSize=1;rounded=0;direction=west;" parent="1" vertex="1">
                    <mxGeometry x="2140.99" y="531" width="125" height="41" as="geometry"/>
                </mxCell>
                <mxCell id="SHrXoLm5jMl1KSt1BzP1-37" value="" style="edgeStyle=orthogonalEdgeStyle;rounded=0;orthogonalLoop=1;jettySize=auto;html=1;" parent="1" source="SHrXoLm5jMl1KSt1BzP1-38" target="SHrXoLm5jMl1KSt1BzP1-35" edge="1">
                    <mxGeometry relative="1" as="geometry"/>
                </mxCell>
                <mxCell id="SHrXoLm5jMl1KSt1BzP1-38" value="&quot;Ingrese la cantidad vendida de ALFAJORES B&quot;" style="shape=trapezoid;perimeter=trapezoidPerimeter;whiteSpace=wrap;html=1;fixedSize=1;rounded=0;" parent="1" vertex="1">
                    <mxGeometry x="2094.23" y="289" width="218.55" height="64" as="geometry"/>
                </mxCell>
                <mxCell id="SHrXoLm5jMl1KSt1BzP1-39" value="" style="edgeStyle=orthogonalEdgeStyle;rounded=0;orthogonalLoop=1;jettySize=auto;html=1;" parent="1" source="SHrXoLm5jMl1KSt1BzP1-40" target="SHrXoLm5jMl1KSt1BzP1-36" edge="1">
                    <mxGeometry relative="1" as="geometry"/>
                </mxCell>
                <mxCell id="SHrXoLm5jMl1KSt1BzP1-40" value="&quot;Ingrese la cantidad vendida de ALFAJORES C&quot;" style="shape=trapezoid;perimeter=trapezoidPerimeter;whiteSpace=wrap;html=1;fixedSize=1;rounded=0;" parent="1" vertex="1">
                    <mxGeometry x="2094.22" y="444" width="218.55" height="64" as="geometry"/>
                </mxCell>
                <mxCell id="SHrXoLm5jMl1KSt1BzP1-56" style="edgeStyle=orthogonalEdgeStyle;rounded=0;orthogonalLoop=1;jettySize=auto;html=1;exitX=0.5;exitY=1;exitDx=0;exitDy=0;" parent="1" source="SHrXoLm5jMl1KSt1BzP1-43" target="SHrXoLm5jMl1KSt1BzP1-46" edge="1">
                    <mxGeometry relative="1" as="geometry"/>
                </mxCell>
                <mxCell id="SHrXoLm5jMl1KSt1BzP1-43" value="totalVendido = alfajoresA + alfajoresB + alfajoresC" style="rounded=0;whiteSpace=wrap;html=1;" parent="1" vertex="1">
                    <mxGeometry x="2056" y="597" width="295" height="55" as="geometry"/>
                </mxCell>
                <mxCell id="SHrXoLm5jMl1KSt1BzP1-57" style="edgeStyle=orthogonalEdgeStyle;rounded=0;orthogonalLoop=1;jettySize=auto;html=1;exitX=0.5;exitY=1;exitDx=0;exitDy=0;entryX=0.5;entryY=0;entryDx=0;entryDy=0;" parent="1" source="SHrXoLm5jMl1KSt1BzP1-46" target="SHrXoLm5jMl1KSt1BzP1-48" edge="1">
                    <mxGeometry relative="1" as="geometry"/>
                </mxCell>
                <mxCell id="SHrXoLm5jMl1KSt1BzP1-46" value="porcentajeA = alfajoresA * 100 / totalVendido" style="rounded=0;whiteSpace=wrap;html=1;" parent="1" vertex="1">
                    <mxGeometry x="2060" y="677" width="287" height="48" as="geometry"/>
                </mxCell>
                <mxCell id="SHrXoLm5jMl1KSt1BzP1-58" style="edgeStyle=orthogonalEdgeStyle;rounded=0;orthogonalLoop=1;jettySize=auto;html=1;exitX=0.5;exitY=1;exitDx=0;exitDy=0;" parent="1" source="SHrXoLm5jMl1KSt1BzP1-48" target="SHrXoLm5jMl1KSt1BzP1-50" edge="1">
                    <mxGeometry relative="1" as="geometry"/>
                </mxCell>
                <mxCell id="SHrXoLm5jMl1KSt1BzP1-48" value="porcentajeB = alfajoresB * 100 / totalVendido" style="rounded=0;whiteSpace=wrap;html=1;" parent="1" vertex="1">
                    <mxGeometry x="2060" y="750" width="287" height="48" as="geometry"/>
                </mxCell>
                <mxCell id="SHrXoLm5jMl1KSt1BzP1-62" style="edgeStyle=orthogonalEdgeStyle;rounded=0;orthogonalLoop=1;jettySize=auto;html=1;exitX=0.5;exitY=1;exitDx=0;exitDy=0;entryX=0.5;entryY=0;entryDx=0;entryDy=0;" parent="1" source="SHrXoLm5jMl1KSt1BzP1-50" target="SHrXoLm5jMl1KSt1BzP1-52" edge="1">
                    <mxGeometry relative="1" as="geometry"/>
                </mxCell>
                <mxCell id="SHrXoLm5jMl1KSt1BzP1-50" value="porcentajeC = 100 - (porcentajeA + porcentajeB)" style="rounded=0;whiteSpace=wrap;html=1;" parent="1" vertex="1">
                    <mxGeometry x="2060" y="817" width="287" height="48" as="geometry"/>
                </mxCell>
                <mxCell id="SHrXoLm5jMl1KSt1BzP1-63" style="edgeStyle=orthogonalEdgeStyle;rounded=0;orthogonalLoop=1;jettySize=auto;html=1;exitX=0.5;exitY=1;exitDx=0;exitDy=0;" parent="1" source="SHrXoLm5jMl1KSt1BzP1-52" target="SHrXoLm5jMl1KSt1BzP1-59" edge="1">
                    <mxGeometry relative="1" as="geometry"/>
                </mxCell>
                <mxCell id="SHrXoLm5jMl1KSt1BzP1-52" value="&quot;Porcentaje de A: &quot;, porcentajeA" style="shape=trapezoid;perimeter=trapezoidPerimeter;whiteSpace=wrap;html=1;fixedSize=1;rounded=0;" parent="1" vertex="1">
                    <mxGeometry x="2123.02" y="886" width="160.98" height="47" as="geometry"/>
                </mxCell>
                <mxCell id="SHrXoLm5jMl1KSt1BzP1-64" style="edgeStyle=orthogonalEdgeStyle;rounded=0;orthogonalLoop=1;jettySize=auto;html=1;exitX=0.5;exitY=1;exitDx=0;exitDy=0;" parent="1" source="SHrXoLm5jMl1KSt1BzP1-59" target="SHrXoLm5jMl1KSt1BzP1-60" edge="1">
                    <mxGeometry relative="1" as="geometry"/>
                </mxCell>
                <mxCell id="SHrXoLm5jMl1KSt1BzP1-59" value="&quot;Porcentaje de B: &quot;, porcentajeB" style="shape=trapezoid;perimeter=trapezoidPerimeter;whiteSpace=wrap;html=1;fixedSize=1;rounded=0;" parent="1" vertex="1">
                    <mxGeometry x="2123" y="955" width="160.98" height="47" as="geometry"/>
                </mxCell>
                <mxCell id="SHrXoLm5jMl1KSt1BzP1-65" style="edgeStyle=orthogonalEdgeStyle;rounded=0;orthogonalLoop=1;jettySize=auto;html=1;exitX=0.5;exitY=1;exitDx=0;exitDy=0;" parent="1" source="SHrXoLm5jMl1KSt1BzP1-60" target="SHrXoLm5jMl1KSt1BzP1-61" edge="1">
                    <mxGeometry relative="1" as="geometry"/>
                </mxCell>
                <mxCell id="SHrXoLm5jMl1KSt1BzP1-60" value="&quot;Porcentaje de C: &quot;, porcentajeB" style="shape=trapezoid;perimeter=trapezoidPerimeter;whiteSpace=wrap;html=1;fixedSize=1;rounded=0;" parent="1" vertex="1">
                    <mxGeometry x="2123.02" y="1027" width="160.98" height="47" as="geometry"/>
                </mxCell>
                <mxCell id="SHrXoLm5jMl1KSt1BzP1-61" value="F" style="ellipse;whiteSpace=wrap;html=1;aspect=fixed;rounded=0;" parent="1" vertex="1">
                    <mxGeometry x="2179.01" y="1103" width="49" height="49" as="geometry"/>
                </mxCell>
                <UserObject label="6)" lucidchartObjectId="jNz2pfY5zjdN" id="pcyj8l-W6Y9LmD0SP6Sz-2">
                    <mxCell style="html=1;overflow=block;blockSpacing=1;whiteSpace=wrap;fontSize=16.7;fontStyle=1;spacing=3.8;strokeOpacity=0;fillOpacity=100;rounded=1;absoluteArcSize=1;arcSize=0;fillColor=#eeeeee;strokeWidth=0.8;strokeColor=#36393d;fontColor=#000000;" parent="1" vertex="1">
                        <mxGeometry x="2399" y="37" width="45" height="39" as="geometry"/>
                    </mxCell>
                </UserObject>
                <mxCell id="pcyj8l-W6Y9LmD0SP6Sz-6" value="" style="edgeStyle=orthogonalEdgeStyle;rounded=0;orthogonalLoop=1;jettySize=auto;html=1;" parent="1" source="pcyj8l-W6Y9LmD0SP6Sz-4" target="pcyj8l-W6Y9LmD0SP6Sz-5" edge="1">
                    <mxGeometry relative="1" as="geometry"/>
                </mxCell>
                <mxCell id="pcyj8l-W6Y9LmD0SP6Sz-4" value="I" style="ellipse;whiteSpace=wrap;html=1;aspect=fixed;rounded=1;shadow=0;sketch=0;fontSize=16.7;" parent="1" vertex="1">
                    <mxGeometry x="2659" y="61" width="45" height="45" as="geometry"/>
                </mxCell>
                <mxCell id="pcyj8l-W6Y9LmD0SP6Sz-15" value="" style="edgeStyle=orthogonalEdgeStyle;rounded=0;orthogonalLoop=1;jettySize=auto;html=1;" parent="1" source="pcyj8l-W6Y9LmD0SP6Sz-5" target="pcyj8l-W6Y9LmD0SP6Sz-9" edge="1">
                    <mxGeometry relative="1" as="geometry"/>
                </mxCell>
                <mxCell id="pcyj8l-W6Y9LmD0SP6Sz-5" value="&quot;Ingrese el monto de recaudación total de la semana 1&quot;" style="shape=trapezoid;perimeter=trapezoidPerimeter;whiteSpace=wrap;html=1;fixedSize=1;rounded=0;" parent="1" vertex="1">
                    <mxGeometry x="2599.6099999999997" y="129" width="163.78" height="64" as="geometry"/>
                </mxCell>
                <mxCell id="pcyj8l-W6Y9LmD0SP6Sz-18" style="edgeStyle=orthogonalEdgeStyle;rounded=0;orthogonalLoop=1;jettySize=auto;html=1;exitX=0.5;exitY=1;exitDx=0;exitDy=0;entryX=0.5;entryY=1;entryDx=0;entryDy=0;" parent="1" source="pcyj8l-W6Y9LmD0SP6Sz-7" target="pcyj8l-W6Y9LmD0SP6Sz-10" edge="1">
                    <mxGeometry relative="1" as="geometry"/>
                </mxCell>
                <mxCell id="pcyj8l-W6Y9LmD0SP6Sz-7" value="&quot;Ingrese el monto de recaudación total de la semana 2&quot;" style="shape=trapezoid;perimeter=trapezoidPerimeter;whiteSpace=wrap;html=1;fixedSize=1;rounded=0;" parent="1" vertex="1">
                    <mxGeometry x="2599.6099999999997" y="275" width="163.78" height="64" as="geometry"/>
                </mxCell>
                <mxCell id="pcyj8l-W6Y9LmD0SP6Sz-17" style="edgeStyle=orthogonalEdgeStyle;rounded=0;orthogonalLoop=1;jettySize=auto;html=1;exitX=0.5;exitY=0;exitDx=0;exitDy=0;" parent="1" source="pcyj8l-W6Y9LmD0SP6Sz-9" target="pcyj8l-W6Y9LmD0SP6Sz-7" edge="1">
                    <mxGeometry relative="1" as="geometry"/>
                </mxCell>
                <mxCell id="pcyj8l-W6Y9LmD0SP6Sz-9" value="semanaUno" style="shape=trapezoid;perimeter=trapezoidPerimeter;whiteSpace=wrap;html=1;fixedSize=1;rounded=0;direction=west;" parent="1" vertex="1">
                    <mxGeometry x="2619" y="213" width="125" height="42" as="geometry"/>
                </mxCell>
                <mxCell id="pcyj8l-W6Y9LmD0SP6Sz-20" style="edgeStyle=orthogonalEdgeStyle;rounded=0;orthogonalLoop=1;jettySize=auto;html=1;exitX=0.5;exitY=0;exitDx=0;exitDy=0;entryX=0.5;entryY=0;entryDx=0;entryDy=0;" parent="1" source="pcyj8l-W6Y9LmD0SP6Sz-10" target="pcyj8l-W6Y9LmD0SP6Sz-11" edge="1">
                    <mxGeometry relative="1" as="geometry"/>
                </mxCell>
                <mxCell id="pcyj8l-W6Y9LmD0SP6Sz-10" value="semanaDos" style="shape=trapezoid;perimeter=trapezoidPerimeter;whiteSpace=wrap;html=1;fixedSize=1;rounded=0;direction=west;" parent="1" vertex="1">
                    <mxGeometry x="2619" y="358" width="125" height="42" as="geometry"/>
                </mxCell>
                <mxCell id="pcyj8l-W6Y9LmD0SP6Sz-21" style="edgeStyle=orthogonalEdgeStyle;rounded=0;orthogonalLoop=1;jettySize=auto;html=1;exitX=0.5;exitY=1;exitDx=0;exitDy=0;" parent="1" source="pcyj8l-W6Y9LmD0SP6Sz-11" target="pcyj8l-W6Y9LmD0SP6Sz-12" edge="1">
                    <mxGeometry relative="1" as="geometry"/>
                </mxCell>
                <mxCell id="pcyj8l-W6Y9LmD0SP6Sz-11" value="&quot;Ingrese el monto de recaudación total de la semana 3&quot;" style="shape=trapezoid;perimeter=trapezoidPerimeter;whiteSpace=wrap;html=1;fixedSize=1;rounded=0;" parent="1" vertex="1">
                    <mxGeometry x="2599.6099999999997" y="422" width="163.78" height="64" as="geometry"/>
                </mxCell>
                <mxCell id="pcyj8l-W6Y9LmD0SP6Sz-22" style="edgeStyle=orthogonalEdgeStyle;rounded=0;orthogonalLoop=1;jettySize=auto;html=1;exitX=0.5;exitY=0;exitDx=0;exitDy=0;" parent="1" source="pcyj8l-W6Y9LmD0SP6Sz-12" target="pcyj8l-W6Y9LmD0SP6Sz-13" edge="1">
                    <mxGeometry relative="1" as="geometry"/>
                </mxCell>
                <mxCell id="pcyj8l-W6Y9LmD0SP6Sz-12" value="semanaTres" style="shape=trapezoid;perimeter=trapezoidPerimeter;whiteSpace=wrap;html=1;fixedSize=1;rounded=0;direction=west;" parent="1" vertex="1">
                    <mxGeometry x="2619" y="505" width="125" height="42" as="geometry"/>
                </mxCell>
                <mxCell id="pcyj8l-W6Y9LmD0SP6Sz-23" style="edgeStyle=orthogonalEdgeStyle;rounded=0;orthogonalLoop=1;jettySize=auto;html=1;exitX=0.5;exitY=1;exitDx=0;exitDy=0;" parent="1" source="pcyj8l-W6Y9LmD0SP6Sz-13" target="pcyj8l-W6Y9LmD0SP6Sz-14" edge="1">
                    <mxGeometry relative="1" as="geometry"/>
                </mxCell>
                <mxCell id="pcyj8l-W6Y9LmD0SP6Sz-13" value="&quot;Ingrese el monto de recaudación total de la semana 4&quot;" style="shape=trapezoid;perimeter=trapezoidPerimeter;whiteSpace=wrap;html=1;fixedSize=1;rounded=0;" parent="1" vertex="1">
                    <mxGeometry x="2599.6099999999997" y="566" width="163.78" height="64" as="geometry"/>
                </mxCell>
                <mxCell id="pcyj8l-W6Y9LmD0SP6Sz-28" value="" style="edgeStyle=orthogonalEdgeStyle;rounded=0;orthogonalLoop=1;jettySize=auto;html=1;" parent="1" source="pcyj8l-W6Y9LmD0SP6Sz-14" target="pcyj8l-W6Y9LmD0SP6Sz-27" edge="1">
                    <mxGeometry relative="1" as="geometry"/>
                </mxCell>
                <mxCell id="pcyj8l-W6Y9LmD0SP6Sz-14" value="semanaCuatro" style="shape=trapezoid;perimeter=trapezoidPerimeter;whiteSpace=wrap;html=1;fixedSize=1;rounded=0;direction=west;" parent="1" vertex="1">
                    <mxGeometry x="2619" y="649" width="125" height="42" as="geometry"/>
                </mxCell>
                <mxCell id="pcyj8l-W6Y9LmD0SP6Sz-33" style="edgeStyle=orthogonalEdgeStyle;rounded=0;orthogonalLoop=1;jettySize=auto;html=1;exitX=0.5;exitY=1;exitDx=0;exitDy=0;" parent="1" source="pcyj8l-W6Y9LmD0SP6Sz-24" target="pcyj8l-W6Y9LmD0SP6Sz-30" edge="1">
                    <mxGeometry relative="1" as="geometry"/>
                </mxCell>
                <mxCell id="pcyj8l-W6Y9LmD0SP6Sz-24" value="promedioMes = totalRecaudadoMes / 4" style="rounded=0;whiteSpace=wrap;html=1;" parent="1" vertex="1">
                    <mxGeometry x="2565" y="779" width="233" height="36" as="geometry"/>
                </mxCell>
                <mxCell id="pcyj8l-W6Y9LmD0SP6Sz-29" value="" style="edgeStyle=orthogonalEdgeStyle;rounded=0;orthogonalLoop=1;jettySize=auto;html=1;" parent="1" source="pcyj8l-W6Y9LmD0SP6Sz-27" target="pcyj8l-W6Y9LmD0SP6Sz-24" edge="1">
                    <mxGeometry relative="1" as="geometry"/>
                </mxCell>
                <mxCell id="pcyj8l-W6Y9LmD0SP6Sz-27" value="totalRecaudadoMes = semanaUno + semanaDos + semanaTres + semanaCuatro" style="rounded=0;whiteSpace=wrap;html=1;" parent="1" vertex="1">
                    <mxGeometry x="2456" y="715" width="451" height="42" as="geometry"/>
                </mxCell>
                <mxCell id="pcyj8l-W6Y9LmD0SP6Sz-35" style="edgeStyle=orthogonalEdgeStyle;rounded=0;orthogonalLoop=1;jettySize=auto;html=1;exitX=0.5;exitY=1;exitDx=0;exitDy=0;" parent="1" source="pcyj8l-W6Y9LmD0SP6Sz-30" target="pcyj8l-W6Y9LmD0SP6Sz-31" edge="1">
                    <mxGeometry relative="1" as="geometry"/>
                </mxCell>
                <mxCell id="pcyj8l-W6Y9LmD0SP6Sz-30" value="porcentajeSemanaUno = semanaUno * 100 / totalRecaudadoMes" style="rounded=0;whiteSpace=wrap;html=1;" parent="1" vertex="1">
                    <mxGeometry x="2488.5" y="838" width="386" height="48" as="geometry"/>
                </mxCell>
                <mxCell id="pcyj8l-W6Y9LmD0SP6Sz-36" style="edgeStyle=orthogonalEdgeStyle;rounded=0;orthogonalLoop=1;jettySize=auto;html=1;exitX=0.5;exitY=1;exitDx=0;exitDy=0;entryX=0.5;entryY=0;entryDx=0;entryDy=0;" parent="1" source="pcyj8l-W6Y9LmD0SP6Sz-31" target="pcyj8l-W6Y9LmD0SP6Sz-32" edge="1">
                    <mxGeometry relative="1" as="geometry"/>
                </mxCell>
                <mxCell id="pcyj8l-W6Y9LmD0SP6Sz-31" value="porcentajeSemanaDos = semanaDos * 100 / totalRecaudadoMes" style="rounded=0;whiteSpace=wrap;html=1;" parent="1" vertex="1">
                    <mxGeometry x="2488.5" y="906" width="386" height="48" as="geometry"/>
                </mxCell>
                <mxCell id="pcyj8l-W6Y9LmD0SP6Sz-37" style="edgeStyle=orthogonalEdgeStyle;rounded=0;orthogonalLoop=1;jettySize=auto;html=1;exitX=0.5;exitY=1;exitDx=0;exitDy=0;" parent="1" source="pcyj8l-W6Y9LmD0SP6Sz-32" target="pcyj8l-W6Y9LmD0SP6Sz-34" edge="1">
                    <mxGeometry relative="1" as="geometry"/>
                </mxCell>
                <mxCell id="pcyj8l-W6Y9LmD0SP6Sz-32" value="porcentajeSemanaTres = semanaTres * 100 / totalRecaudadoMes" style="rounded=0;whiteSpace=wrap;html=1;" parent="1" vertex="1">
                    <mxGeometry x="2488.5" y="972" width="386" height="48" as="geometry"/>
                </mxCell>
                <mxCell id="pcyj8l-W6Y9LmD0SP6Sz-41" style="edgeStyle=orthogonalEdgeStyle;rounded=0;orthogonalLoop=1;jettySize=auto;html=1;exitX=0.5;exitY=1;exitDx=0;exitDy=0;entryX=0.5;entryY=0;entryDx=0;entryDy=0;" parent="1" source="pcyj8l-W6Y9LmD0SP6Sz-34" target="pcyj8l-W6Y9LmD0SP6Sz-40" edge="1">
                    <mxGeometry relative="1" as="geometry"/>
                </mxCell>
                <mxCell id="pcyj8l-W6Y9LmD0SP6Sz-34" value="porcentajeSemanaCuatro = 100 - (porcentajeSemanaUno + porcentajeSemanaDos + porcentajeSemanaTres)" style="rounded=0;whiteSpace=wrap;html=1;" parent="1" vertex="1">
                    <mxGeometry x="2488.5" y="1037" width="386" height="48" as="geometry"/>
                </mxCell>
                <mxCell id="pcyj8l-W6Y9LmD0SP6Sz-46" style="edgeStyle=orthogonalEdgeStyle;rounded=0;orthogonalLoop=1;jettySize=auto;html=1;exitX=0.5;exitY=1;exitDx=0;exitDy=0;" parent="1" source="pcyj8l-W6Y9LmD0SP6Sz-40" target="pcyj8l-W6Y9LmD0SP6Sz-42" edge="1">
                    <mxGeometry relative="1" as="geometry"/>
                </mxCell>
                <mxCell id="pcyj8l-W6Y9LmD0SP6Sz-40" value="&quot;El promedio de recaudación mensual es de: &quot;, promedioMes" style="shape=trapezoid;perimeter=trapezoidPerimeter;whiteSpace=wrap;html=1;fixedSize=1;" parent="1" vertex="1">
                    <mxGeometry x="2969" y="132.42" width="299" height="58.58" as="geometry"/>
                </mxCell>
                <mxCell id="pcyj8l-W6Y9LmD0SP6Sz-47" style="edgeStyle=orthogonalEdgeStyle;rounded=0;orthogonalLoop=1;jettySize=auto;html=1;exitX=0.5;exitY=1;exitDx=0;exitDy=0;" parent="1" source="pcyj8l-W6Y9LmD0SP6Sz-42" target="pcyj8l-W6Y9LmD0SP6Sz-43" edge="1">
                    <mxGeometry relative="1" as="geometry"/>
                </mxCell>
                <mxCell id="pcyj8l-W6Y9LmD0SP6Sz-42" value="&quot;El procentaje de la primera semana es: &quot;, porcentajeSemanaUno" style="shape=trapezoid;perimeter=trapezoidPerimeter;whiteSpace=wrap;html=1;fixedSize=1;" parent="1" vertex="1">
                    <mxGeometry x="2969" y="212.70999999999998" width="299" height="58.58" as="geometry"/>
                </mxCell>
                <mxCell id="pcyj8l-W6Y9LmD0SP6Sz-48" style="edgeStyle=orthogonalEdgeStyle;rounded=0;orthogonalLoop=1;jettySize=auto;html=1;exitX=0.5;exitY=1;exitDx=0;exitDy=0;" parent="1" source="pcyj8l-W6Y9LmD0SP6Sz-43" target="pcyj8l-W6Y9LmD0SP6Sz-44" edge="1">
                    <mxGeometry relative="1" as="geometry"/>
                </mxCell>
                <mxCell id="pcyj8l-W6Y9LmD0SP6Sz-43" value="&quot;El procentaje de la segunda semana es: &quot;, porcentajeSemanaDos" style="shape=trapezoid;perimeter=trapezoidPerimeter;whiteSpace=wrap;html=1;fixedSize=1;" parent="1" vertex="1">
                    <mxGeometry x="2969" y="292.41999999999996" width="299" height="58.58" as="geometry"/>
                </mxCell>
                <mxCell id="pcyj8l-W6Y9LmD0SP6Sz-49" style="edgeStyle=orthogonalEdgeStyle;rounded=0;orthogonalLoop=1;jettySize=auto;html=1;exitX=0.5;exitY=1;exitDx=0;exitDy=0;" parent="1" source="pcyj8l-W6Y9LmD0SP6Sz-44" target="pcyj8l-W6Y9LmD0SP6Sz-45" edge="1">
                    <mxGeometry relative="1" as="geometry"/>
                </mxCell>
                <mxCell id="pcyj8l-W6Y9LmD0SP6Sz-44" value="&quot;El procentaje de la tercera semana es: &quot;, porcentajeSemanaTres" style="shape=trapezoid;perimeter=trapezoidPerimeter;whiteSpace=wrap;html=1;fixedSize=1;" parent="1" vertex="1">
                    <mxGeometry x="2969" y="372.41999999999996" width="299" height="58.58" as="geometry"/>
                </mxCell>
                <mxCell id="pcyj8l-W6Y9LmD0SP6Sz-51" style="edgeStyle=orthogonalEdgeStyle;rounded=0;orthogonalLoop=1;jettySize=auto;html=1;exitX=0.5;exitY=1;exitDx=0;exitDy=0;entryX=0.5;entryY=0;entryDx=0;entryDy=0;" parent="1" source="pcyj8l-W6Y9LmD0SP6Sz-45" target="pcyj8l-W6Y9LmD0SP6Sz-50" edge="1">
                    <mxGeometry relative="1" as="geometry"/>
                </mxCell>
                <mxCell id="pcyj8l-W6Y9LmD0SP6Sz-45" value="&quot;El procentaje de la cuarta semana es: &quot;, porcentajeSemanaCuatro" style="shape=trapezoid;perimeter=trapezoidPerimeter;whiteSpace=wrap;html=1;fixedSize=1;" parent="1" vertex="1">
                    <mxGeometry x="2969" y="452.41999999999996" width="299" height="58.58" as="geometry"/>
                </mxCell>
                <mxCell id="pcyj8l-W6Y9LmD0SP6Sz-50" value="F" style="ellipse;whiteSpace=wrap;html=1;aspect=fixed;rounded=1;shadow=0;sketch=0;fontSize=16.7;" parent="1" vertex="1">
                    <mxGeometry x="3096" y="544" width="45" height="45" as="geometry"/>
                </mxCell>
                <UserObject label="7)" lucidchartObjectId="jNz2pfY5zjdN" id="2">
                    <mxCell style="html=1;overflow=block;blockSpacing=1;whiteSpace=wrap;fontSize=16.7;fontStyle=1;spacing=3.8;strokeOpacity=0;fillOpacity=100;rounded=1;absoluteArcSize=1;arcSize=0;fillColor=#eeeeee;strokeWidth=0.8;strokeColor=#36393d;fontColor=#000000;" parent="1" vertex="1">
                        <mxGeometry x="3315" y="37" width="45" height="39" as="geometry"/>
                    </mxCell>
                </UserObject>
                <mxCell id="12" style="edgeStyle=none;html=1;exitX=0.5;exitY=1;exitDx=0;exitDy=0;" parent="1" source="3" target="4" edge="1">
                    <mxGeometry relative="1" as="geometry"/>
                </mxCell>
                <mxCell id="3" value="I" style="ellipse;whiteSpace=wrap;html=1;aspect=fixed;rounded=1;shadow=0;sketch=0;fontSize=16.7;" parent="1" vertex="1">
                    <mxGeometry x="3570.39" y="37" width="45" height="45" as="geometry"/>
                </mxCell>
                <mxCell id="13" style="edgeStyle=none;html=1;exitX=0.5;exitY=1;exitDx=0;exitDy=0;" parent="1" source="4" target="5" edge="1">
                    <mxGeometry relative="1" as="geometry"/>
                </mxCell>
                <mxCell id="4" value="&quot;Ingrese el importe de venta&quot;" style="shape=trapezoid;perimeter=trapezoidPerimeter;whiteSpace=wrap;html=1;fixedSize=1;rounded=0;" parent="1" vertex="1">
                    <mxGeometry x="3501.39" y="106" width="183" height="43" as="geometry"/>
                </mxCell>
                <mxCell id="14" style="edgeStyle=none;html=1;exitX=0.5;exitY=0;exitDx=0;exitDy=0;" parent="1" source="5" target="6" edge="1">
                    <mxGeometry relative="1" as="geometry"/>
                </mxCell>
                <mxCell id="5" value="ImporteVenta" style="shape=trapezoid;perimeter=trapezoidPerimeter;whiteSpace=wrap;html=1;fixedSize=1;rounded=0;direction=west;" parent="1" vertex="1">
                    <mxGeometry x="3530.39" y="173" width="125" height="42" as="geometry"/>
                </mxCell>
                <mxCell id="15" style="edgeStyle=none;html=1;exitX=0.5;exitY=1;exitDx=0;exitDy=0;" parent="1" source="6" target="7" edge="1">
                    <mxGeometry relative="1" as="geometry"/>
                </mxCell>
                <mxCell id="6" value="&quot;Ingrese el porcentaje de descuento&quot;" style="shape=trapezoid;perimeter=trapezoidPerimeter;whiteSpace=wrap;html=1;fixedSize=1;rounded=0;" parent="1" vertex="1">
                    <mxGeometry x="3501.39" y="238.5" width="183" height="43" as="geometry"/>
                </mxCell>
                <mxCell id="16" style="edgeStyle=none;html=1;exitX=0.5;exitY=0;exitDx=0;exitDy=0;" parent="1" source="7" target="8" edge="1">
                    <mxGeometry relative="1" as="geometry"/>
                </mxCell>
                <mxCell id="7" value="porcentajeDecuento" style="shape=trapezoid;perimeter=trapezoidPerimeter;whiteSpace=wrap;html=1;fixedSize=1;rounded=0;direction=west;" parent="1" vertex="1">
                    <mxGeometry x="3521.78" y="305" width="142.22" height="42" as="geometry"/>
                </mxCell>
                <mxCell id="109" style="edgeStyle=none;html=1;exitX=0.5;exitY=1;exitDx=0;exitDy=0;entryX=0.5;entryY=0;entryDx=0;entryDy=0;" parent="1" source="8" target="108" edge="1">
                    <mxGeometry relative="1" as="geometry"/>
                </mxCell>
                <mxCell id="8" value="montoDescuento = importeVenta * porcentajeDescuento / 100" style="rounded=0;whiteSpace=wrap;html=1;" parent="1" vertex="1">
                    <mxGeometry x="3423" y="376" width="340" height="49" as="geometry"/>
                </mxCell>
                <mxCell id="18" style="edgeStyle=none;html=1;exitX=0.5;exitY=1;exitDx=0;exitDy=0;" parent="1" source="9" target="10" edge="1">
                    <mxGeometry relative="1" as="geometry"/>
                </mxCell>
                <mxCell id="9" value="&quot;El importe a pagar es de $&quot;, montoAPagar" style="shape=trapezoid;perimeter=trapezoidPerimeter;whiteSpace=wrap;html=1;fixedSize=1;rounded=0;" parent="1" vertex="1">
                    <mxGeometry x="3450.89" y="532" width="284" height="60" as="geometry"/>
                </mxCell>
                <mxCell id="10" value="F" style="ellipse;whiteSpace=wrap;html=1;aspect=fixed;rounded=1;shadow=0;sketch=0;fontSize=16.7;" parent="1" vertex="1">
                    <mxGeometry x="3570.5" y="622.5" width="45" height="45" as="geometry"/>
                </mxCell>
                <mxCell id="19" style="edgeStyle=none;html=1;exitX=0.5;exitY=1;exitDx=0;exitDy=0;" parent="1" source="20" target="22" edge="1">
                    <mxGeometry relative="1" as="geometry"/>
                </mxCell>
                <mxCell id="20" value="I" style="ellipse;whiteSpace=wrap;html=1;aspect=fixed;rounded=1;shadow=0;sketch=0;fontSize=16.7;" parent="1" vertex="1">
                    <mxGeometry x="270.3899999999999" y="1301" width="45" height="45" as="geometry"/>
                </mxCell>
                <mxCell id="21" style="edgeStyle=none;html=1;exitX=0.5;exitY=1;exitDx=0;exitDy=0;" parent="1" source="22" target="24" edge="1">
                    <mxGeometry relative="1" as="geometry"/>
                </mxCell>
                <mxCell id="22" value="&quot;Ingrese el importe de venta sin descuento&quot;" style="shape=trapezoid;perimeter=trapezoidPerimeter;whiteSpace=wrap;html=1;fixedSize=1;rounded=0;" parent="1" vertex="1">
                    <mxGeometry x="184.78" y="1370" width="216.22" height="43" as="geometry"/>
                </mxCell>
                <mxCell id="23" style="edgeStyle=none;html=1;exitX=0.5;exitY=0;exitDx=0;exitDy=0;" parent="1" source="24" target="26" edge="1">
                    <mxGeometry relative="1" as="geometry"/>
                </mxCell>
                <mxCell id="24" value="importeSinDescuento" style="shape=trapezoid;perimeter=trapezoidPerimeter;whiteSpace=wrap;html=1;fixedSize=1;rounded=0;direction=west;" parent="1" vertex="1">
                    <mxGeometry x="194.78" y="1437" width="196.22" height="42" as="geometry"/>
                </mxCell>
                <mxCell id="25" style="edgeStyle=none;html=1;exitX=0.5;exitY=1;exitDx=0;exitDy=0;" parent="1" source="26" target="28" edge="1">
                    <mxGeometry relative="1" as="geometry"/>
                </mxCell>
                <mxCell id="26" value="&quot;Ingrese el importe de venta con el descuento aplicado&quot;" style="shape=trapezoid;perimeter=trapezoidPerimeter;whiteSpace=wrap;html=1;fixedSize=1;rounded=0;" parent="1" vertex="1">
                    <mxGeometry x="177.78" y="1502.5" width="230.22" height="43" as="geometry"/>
                </mxCell>
                <mxCell id="27" style="edgeStyle=none;html=1;exitX=0.5;exitY=0;exitDx=0;exitDy=0;" parent="1" source="28" target="30" edge="1">
                    <mxGeometry relative="1" as="geometry"/>
                </mxCell>
                <mxCell id="28" value="importeConDescuento" style="shape=trapezoid;perimeter=trapezoidPerimeter;whiteSpace=wrap;html=1;fixedSize=1;rounded=0;direction=west;" parent="1" vertex="1">
                    <mxGeometry x="197.78" y="1569" width="190.22" height="42" as="geometry"/>
                </mxCell>
                <mxCell id="29" style="edgeStyle=none;html=1;exitX=0.5;exitY=1;exitDx=0;exitDy=0;" parent="1" source="30" target="32" edge="1">
                    <mxGeometry relative="1" as="geometry"/>
                </mxCell>
                <mxCell id="30" value="porcentajeDescuento = 100 - (importeConDescuento * 100 / importeSinDescuento)" style="rounded=0;whiteSpace=wrap;html=1;" parent="1" vertex="1">
                    <mxGeometry x="69" y="1640" width="448" height="54" as="geometry"/>
                </mxCell>
                <mxCell id="31" style="edgeStyle=none;html=1;exitX=0.5;exitY=1;exitDx=0;exitDy=0;" parent="1" source="32" target="33" edge="1">
                    <mxGeometry relative="1" as="geometry"/>
                </mxCell>
                <mxCell id="32" value="&quot;El porcentaje aplicado es del &quot;, porcentajeDescuento" style="shape=trapezoid;perimeter=trapezoidPerimeter;whiteSpace=wrap;html=1;fixedSize=1;rounded=0;" parent="1" vertex="1">
                    <mxGeometry x="150.88999999999987" y="1720.5" width="284" height="60" as="geometry"/>
                </mxCell>
                <mxCell id="33" value="F" style="ellipse;whiteSpace=wrap;html=1;aspect=fixed;rounded=1;shadow=0;sketch=0;fontSize=16.7;" parent="1" vertex="1">
                    <mxGeometry x="270.5" y="1811" width="45" height="45" as="geometry"/>
                </mxCell>
                <UserObject label="&lt;font color=&quot;#000000&quot;&gt;8)&lt;/font&gt;" lucidchartObjectId="nJz2FS3Vk8pQ" id="36">
                    <mxCell style="html=1;overflow=block;blockSpacing=1;whiteSpace=wrap;fontSize=16.7;fontStyle=1;spacing=3.8;strokeOpacity=0;fillOpacity=100;rounded=1;absoluteArcSize=1;arcSize=9;fillColor=#eeeeee;strokeWidth=0.8;sketch=0;strokeColor=#36393d;" parent="1" vertex="1">
                        <mxGeometry x="74" y="1260" width="45" height="39" as="geometry"/>
                    </mxCell>
                </UserObject>
                <UserObject label="&lt;font color=&quot;#000000&quot;&gt;9)&lt;/font&gt;" lucidchartObjectId="nJz2FS3Vk8pQ" id="37">
                    <mxCell style="html=1;overflow=block;blockSpacing=1;whiteSpace=wrap;fontSize=16.7;fontStyle=1;spacing=3.8;strokeOpacity=0;fillOpacity=100;rounded=1;absoluteArcSize=1;arcSize=9;fillColor=#eeeeee;strokeWidth=0.8;sketch=0;strokeColor=#36393d;" parent="1" vertex="1">
                        <mxGeometry x="509" y="1260" width="45" height="39" as="geometry"/>
                    </mxCell>
                </UserObject>
                <mxCell id="38" style="edgeStyle=none;html=1;exitX=0.5;exitY=1;exitDx=0;exitDy=0;" parent="1" source="39" target="40" edge="1">
                    <mxGeometry relative="1" as="geometry"/>
                </mxCell>
                <mxCell id="39" value="I" style="ellipse;whiteSpace=wrap;html=1;aspect=fixed;rounded=1;shadow=0;sketch=0;fontSize=16.7;" parent="1" vertex="1">
                    <mxGeometry x="723.9999999999999" y="1299" width="45" height="45" as="geometry"/>
                </mxCell>
                <mxCell id="49" style="edgeStyle=none;html=1;exitX=0.5;exitY=1;exitDx=0;exitDy=0;" parent="1" source="40" target="41" edge="1">
                    <mxGeometry relative="1" as="geometry"/>
                </mxCell>
                <mxCell id="40" value="&quot;Ingrese la cantidad de minutos a convertir en horas y minutos&quot;" style="shape=trapezoid;perimeter=trapezoidPerimeter;whiteSpace=wrap;html=1;fixedSize=1;rounded=0;" parent="1" vertex="1">
                    <mxGeometry x="633" y="1368" width="227" height="59" as="geometry"/>
                </mxCell>
                <mxCell id="50" style="edgeStyle=none;html=1;exitX=0.5;exitY=0;exitDx=0;exitDy=0;" parent="1" source="41" target="42" edge="1">
                    <mxGeometry relative="1" as="geometry"/>
                </mxCell>
                <mxCell id="41" value="minutos" style="shape=trapezoid;perimeter=trapezoidPerimeter;whiteSpace=wrap;html=1;fixedSize=1;rounded=0;direction=west;" parent="1" vertex="1">
                    <mxGeometry x="684" y="1451" width="125" height="42" as="geometry"/>
                </mxCell>
                <mxCell id="51" style="edgeStyle=none;html=1;exitX=0.5;exitY=1;exitDx=0;exitDy=0;" parent="1" source="42" target="45" edge="1">
                    <mxGeometry relative="1" as="geometry"/>
                </mxCell>
                <mxCell id="42" value="minutosConversion = minutos % 60" style="rounded=0;whiteSpace=wrap;html=1;" parent="1" vertex="1">
                    <mxGeometry x="645" y="1517" width="203" height="60" as="geometry"/>
                </mxCell>
                <mxCell id="52" style="edgeStyle=none;html=1;exitX=0.5;exitY=1;exitDx=0;exitDy=0;" parent="1" source="45" target="46" edge="1">
                    <mxGeometry relative="1" as="geometry"/>
                </mxCell>
                <mxCell id="45" value="horas = (minutos - minutosConversion) / 60" style="rounded=0;whiteSpace=wrap;html=1;" parent="1" vertex="1">
                    <mxGeometry x="614" y="1601" width="265" height="60" as="geometry"/>
                </mxCell>
                <mxCell id="53" style="edgeStyle=none;html=1;exitX=0.5;exitY=1;exitDx=0;exitDy=0;" parent="1" source="46" target="47" edge="1">
                    <mxGeometry relative="1" as="geometry"/>
                </mxCell>
                <mxCell id="46" value="&quot;La cantidad de horas es de &quot;, horas" style="shape=trapezoid;perimeter=trapezoidPerimeter;whiteSpace=wrap;html=1;fixedSize=1;rounded=0;" parent="1" vertex="1">
                    <mxGeometry x="633" y="1685" width="227" height="59" as="geometry"/>
                </mxCell>
                <mxCell id="55" style="edgeStyle=none;html=1;exitX=0.5;exitY=1;exitDx=0;exitDy=0;" parent="1" source="47" target="48" edge="1">
                    <mxGeometry relative="1" as="geometry"/>
                </mxCell>
                <mxCell id="47" value="&quot;La cantidad de minutos es de &quot;, minutosConversion" style="shape=trapezoid;perimeter=trapezoidPerimeter;whiteSpace=wrap;html=1;fixedSize=1;rounded=0;" parent="1" vertex="1">
                    <mxGeometry x="633" y="1768" width="227" height="59" as="geometry"/>
                </mxCell>
                <mxCell id="48" value="F" style="ellipse;whiteSpace=wrap;html=1;aspect=fixed;rounded=1;shadow=0;sketch=0;fontSize=16.7;" parent="1" vertex="1">
                    <mxGeometry x="723.9999999999999" y="1851" width="45" height="45" as="geometry"/>
                </mxCell>
                <UserObject label="&lt;font color=&quot;#000000&quot;&gt;10)&lt;/font&gt;" lucidchartObjectId="nJz2FS3Vk8pQ" id="56">
                    <mxCell style="html=1;overflow=block;blockSpacing=1;whiteSpace=wrap;fontSize=16.7;fontStyle=1;spacing=3.8;strokeOpacity=0;fillOpacity=100;rounded=1;absoluteArcSize=1;arcSize=9;fillColor=#eeeeee;strokeWidth=0.8;sketch=0;strokeColor=#36393d;" parent="1" vertex="1">
                        <mxGeometry x="960" y="1260" width="45" height="39" as="geometry"/>
                    </mxCell>
                </UserObject>
                <mxCell id="65" style="edgeStyle=none;html=1;exitX=0.5;exitY=1;exitDx=0;exitDy=0;" parent="1" source="57" target="58" edge="1">
                    <mxGeometry relative="1" as="geometry"/>
                </mxCell>
                <mxCell id="57" value="I" style="ellipse;whiteSpace=wrap;html=1;aspect=fixed;rounded=1;shadow=0;sketch=0;fontSize=16.7;" parent="1" vertex="1">
                    <mxGeometry x="1177" y="1299" width="45" height="45" as="geometry"/>
                </mxCell>
                <mxCell id="66" style="edgeStyle=none;html=1;exitX=0.5;exitY=1;exitDx=0;exitDy=0;" parent="1" source="58" target="59" edge="1">
                    <mxGeometry relative="1" as="geometry"/>
                </mxCell>
                <mxCell id="58" value="&quot;Ingrese la cantidad de horas&quot;" style="shape=trapezoid;perimeter=trapezoidPerimeter;whiteSpace=wrap;html=1;fixedSize=1;rounded=0;" parent="1" vertex="1">
                    <mxGeometry x="1086" y="1368" width="227" height="59" as="geometry"/>
                </mxCell>
                <mxCell id="67" style="edgeStyle=none;html=1;exitX=0.5;exitY=0;exitDx=0;exitDy=0;" parent="1" source="59" target="60" edge="1">
                    <mxGeometry relative="1" as="geometry"/>
                </mxCell>
                <mxCell id="59" value="horas" style="shape=trapezoid;perimeter=trapezoidPerimeter;whiteSpace=wrap;html=1;fixedSize=1;rounded=0;direction=west;" parent="1" vertex="1">
                    <mxGeometry x="1137" y="1451" width="125" height="42" as="geometry"/>
                </mxCell>
                <mxCell id="68" style="edgeStyle=none;html=1;exitX=0.5;exitY=1;exitDx=0;exitDy=0;" parent="1" source="60" target="61" edge="1">
                    <mxGeometry relative="1" as="geometry"/>
                </mxCell>
                <mxCell id="60" value="horasConversion = horas % 24" style="rounded=0;whiteSpace=wrap;html=1;" parent="1" vertex="1">
                    <mxGeometry x="1098" y="1517" width="203" height="60" as="geometry"/>
                </mxCell>
                <mxCell id="69" style="edgeStyle=none;html=1;exitX=0.5;exitY=1;exitDx=0;exitDy=0;" parent="1" source="61" target="62" edge="1">
                    <mxGeometry relative="1" as="geometry"/>
                </mxCell>
                <mxCell id="61" value="días = (horas - horasConversion) / 24" style="rounded=0;whiteSpace=wrap;html=1;" parent="1" vertex="1">
                    <mxGeometry x="1067" y="1601" width="265" height="60" as="geometry"/>
                </mxCell>
                <mxCell id="70" style="edgeStyle=none;html=1;exitX=0.5;exitY=1;exitDx=0;exitDy=0;" parent="1" source="62" target="63" edge="1">
                    <mxGeometry relative="1" as="geometry"/>
                </mxCell>
                <mxCell id="62" value="&quot;La cantidad de días es de &quot;, horas" style="shape=trapezoid;perimeter=trapezoidPerimeter;whiteSpace=wrap;html=1;fixedSize=1;rounded=0;" parent="1" vertex="1">
                    <mxGeometry x="1086" y="1685" width="227" height="59" as="geometry"/>
                </mxCell>
                <mxCell id="71" style="edgeStyle=none;html=1;exitX=0.5;exitY=1;exitDx=0;exitDy=0;entryX=0.5;entryY=1;entryDx=0;entryDy=0;" parent="1" source="63" target="64" edge="1">
                    <mxGeometry relative="1" as="geometry"/>
                </mxCell>
                <mxCell id="132" value="" style="edgeStyle=none;html=1;" parent="1" source="63" target="64" edge="1">
                    <mxGeometry relative="1" as="geometry"/>
                </mxCell>
                <mxCell id="63" value="&quot;La cantidad de horas es de &quot;, horasConversion" style="shape=trapezoid;perimeter=trapezoidPerimeter;whiteSpace=wrap;html=1;fixedSize=1;rounded=0;" parent="1" vertex="1">
                    <mxGeometry x="1086" y="1768" width="227" height="59" as="geometry"/>
                </mxCell>
                <mxCell id="64" value="F" style="ellipse;whiteSpace=wrap;html=1;aspect=fixed;rounded=1;shadow=0;sketch=0;fontSize=16.7;" parent="1" vertex="1">
                    <mxGeometry x="1177" y="1851" width="45" height="45" as="geometry"/>
                </mxCell>
                <UserObject label="&lt;font color=&quot;#000000&quot;&gt;11)&lt;/font&gt;" lucidchartObjectId="nJz2FS3Vk8pQ" id="72">
                    <mxCell style="html=1;overflow=block;blockSpacing=1;whiteSpace=wrap;fontSize=16.7;fontStyle=1;spacing=3.8;strokeOpacity=0;fillOpacity=100;rounded=1;absoluteArcSize=1;arcSize=9;fillColor=#eeeeee;strokeWidth=0.8;sketch=0;strokeColor=#36393d;" parent="1" vertex="1">
                        <mxGeometry x="1355" y="1260" width="45" height="39" as="geometry"/>
                    </mxCell>
                </UserObject>
                <mxCell id="87" style="edgeStyle=none;html=1;exitX=0.5;exitY=1;exitDx=0;exitDy=0;entryX=0.5;entryY=0;entryDx=0;entryDy=0;" parent="1" source="73" target="74" edge="1">
                    <mxGeometry relative="1" as="geometry"/>
                </mxCell>
                <mxCell id="73" value="I" style="ellipse;whiteSpace=wrap;html=1;aspect=fixed;rounded=1;shadow=0;sketch=0;fontSize=16.7;" parent="1" vertex="1">
                    <mxGeometry x="1572" y="1299" width="45" height="45" as="geometry"/>
                </mxCell>
                <mxCell id="86" style="edgeStyle=none;html=1;exitX=0.5;exitY=1;exitDx=0;exitDy=0;" parent="1" source="74" target="75" edge="1">
                    <mxGeometry relative="1" as="geometry"/>
                </mxCell>
                <mxCell id="74" value="&quot;Ingrese la cantidad de minutos&quot;" style="shape=trapezoid;perimeter=trapezoidPerimeter;whiteSpace=wrap;html=1;fixedSize=1;rounded=0;" parent="1" vertex="1">
                    <mxGeometry x="1481" y="1368" width="227" height="59" as="geometry"/>
                </mxCell>
                <mxCell id="88" style="edgeStyle=none;html=1;exitX=0.5;exitY=0;exitDx=0;exitDy=0;entryX=0.5;entryY=0;entryDx=0;entryDy=0;" parent="1" source="75" target="77" edge="1">
                    <mxGeometry relative="1" as="geometry"/>
                </mxCell>
                <mxCell id="75" value="minutos" style="shape=trapezoid;perimeter=trapezoidPerimeter;whiteSpace=wrap;html=1;fixedSize=1;rounded=0;direction=west;" parent="1" vertex="1">
                    <mxGeometry x="1532" y="1451" width="125" height="42" as="geometry"/>
                </mxCell>
                <mxCell id="93" style="edgeStyle=none;html=1;exitX=0.5;exitY=1;exitDx=0;exitDy=0;entryX=0.5;entryY=0;entryDx=0;entryDy=0;" parent="1" source="77" target="78" edge="1">
                    <mxGeometry relative="1" as="geometry"/>
                </mxCell>
                <mxCell id="77" value="conversionMinutos = minutos % 60" style="rounded=0;whiteSpace=wrap;html=1;" parent="1" vertex="1">
                    <mxGeometry x="1490.5" y="1517" width="208" height="60" as="geometry"/>
                </mxCell>
                <mxCell id="94" style="edgeStyle=none;html=1;exitX=0.5;exitY=1;exitDx=0;exitDy=0;entryX=0.5;entryY=0;entryDx=0;entryDy=0;" parent="1" source="78" target="79" edge="1">
                    <mxGeometry relative="1" as="geometry"/>
                </mxCell>
                <mxCell id="78" value="horas = (minutos - conversionMinutos) / 60" style="rounded=0;whiteSpace=wrap;html=1;" parent="1" vertex="1">
                    <mxGeometry x="1468.5" y="1601" width="252" height="60" as="geometry"/>
                </mxCell>
                <mxCell id="95" style="edgeStyle=none;html=1;exitX=0.5;exitY=1;exitDx=0;exitDy=0;" parent="1" source="79" target="80" edge="1">
                    <mxGeometry relative="1" as="geometry"/>
                </mxCell>
                <mxCell id="79" value="conversionHoras = horas % 24" style="rounded=0;whiteSpace=wrap;html=1;" parent="1" vertex="1">
                    <mxGeometry x="1501.5" y="1685" width="186" height="60" as="geometry"/>
                </mxCell>
                <mxCell id="96" style="edgeStyle=none;html=1;exitX=0.5;exitY=1;exitDx=0;exitDy=0;" parent="1" source="80" target="82" edge="1">
                    <mxGeometry relative="1" as="geometry"/>
                </mxCell>
                <mxCell id="80" value="dias = (horas - conversionHoras) / 24" style="rounded=0;whiteSpace=wrap;html=1;" parent="1" vertex="1">
                    <mxGeometry x="1468.5" y="1770" width="252" height="60" as="geometry"/>
                </mxCell>
                <mxCell id="97" style="edgeStyle=none;html=1;exitX=0.5;exitY=1;exitDx=0;exitDy=0;" parent="1" source="82" target="83" edge="1">
                    <mxGeometry relative="1" as="geometry"/>
                </mxCell>
                <mxCell id="82" value="&quot;La cantidad de días es de &quot;, dias" style="shape=trapezoid;perimeter=trapezoidPerimeter;whiteSpace=wrap;html=1;fixedSize=1;rounded=0;" parent="1" vertex="1">
                    <mxGeometry x="1481" y="1856" width="227" height="66" as="geometry"/>
                </mxCell>
                <mxCell id="98" style="edgeStyle=none;html=1;exitX=0.5;exitY=1;exitDx=0;exitDy=0;" parent="1" source="83" target="84" edge="1">
                    <mxGeometry relative="1" as="geometry"/>
                </mxCell>
                <mxCell id="83" value="&quot;La cantidad de horas es de &quot;, conversionHoras" style="shape=trapezoid;perimeter=trapezoidPerimeter;whiteSpace=wrap;html=1;fixedSize=1;rounded=0;" parent="1" vertex="1">
                    <mxGeometry x="1481" y="1948" width="227" height="66" as="geometry"/>
                </mxCell>
                <mxCell id="131" style="edgeStyle=none;html=1;exitX=0.5;exitY=1;exitDx=0;exitDy=0;" parent="1" source="84" target="85" edge="1">
                    <mxGeometry relative="1" as="geometry"/>
                </mxCell>
                <mxCell id="84" value="&quot;La cantidad de días es de &quot;, conversionMinutos" style="shape=trapezoid;perimeter=trapezoidPerimeter;whiteSpace=wrap;html=1;fixedSize=1;rounded=0;" parent="1" vertex="1">
                    <mxGeometry x="1481" y="2040" width="227" height="66" as="geometry"/>
                </mxCell>
                <mxCell id="85" value="F" style="ellipse;whiteSpace=wrap;html=1;aspect=fixed;rounded=1;shadow=0;sketch=0;fontSize=16.7;" parent="1" vertex="1">
                    <mxGeometry x="1572" y="2132" width="45" height="45" as="geometry"/>
                </mxCell>
                <UserObject label="&lt;font color=&quot;#000000&quot;&gt;12)&lt;/font&gt;" lucidchartObjectId="nJz2FS3Vk8pQ" id="103">
                    <mxCell style="html=1;overflow=block;blockSpacing=1;whiteSpace=wrap;fontSize=16.7;fontStyle=1;spacing=3.8;strokeOpacity=0;fillOpacity=100;rounded=1;absoluteArcSize=1;arcSize=9;fillColor=#eeeeee;strokeWidth=0.8;sketch=0;strokeColor=#36393d;" parent="1" vertex="1">
                        <mxGeometry x="1994" y="1260" width="45" height="39" as="geometry"/>
                    </mxCell>
                </UserObject>
                <mxCell id="124" style="edgeStyle=none;html=1;exitX=0.5;exitY=1;exitDx=0;exitDy=0;" parent="1" source="104" target="120" edge="1">
                    <mxGeometry relative="1" as="geometry"/>
                </mxCell>
                <mxCell id="104" value="I" style="ellipse;whiteSpace=wrap;html=1;aspect=fixed;rounded=1;shadow=0;sketch=0;fontSize=16.7;" parent="1" vertex="1">
                    <mxGeometry x="2211" y="1299" width="45" height="45" as="geometry"/>
                </mxCell>
                <mxCell id="117" style="edgeStyle=none;html=1;exitX=0.5;exitY=1;exitDx=0;exitDy=0;" parent="1" source="105" target="111" edge="1">
                    <mxGeometry relative="1" as="geometry"/>
                </mxCell>
                <mxCell id="105" value="&quot;Ingrese la cantidad de huevos a comprar&quot;" style="shape=trapezoid;perimeter=trapezoidPerimeter;whiteSpace=wrap;html=1;fixedSize=1;rounded=0;" parent="1" vertex="1">
                    <mxGeometry x="2120" y="1545.5" width="227" height="59" as="geometry"/>
                </mxCell>
                <mxCell id="110" style="edgeStyle=none;html=1;exitX=0.5;exitY=1;exitDx=0;exitDy=0;" parent="1" source="108" target="9" edge="1">
                    <mxGeometry relative="1" as="geometry"/>
                </mxCell>
                <mxCell id="108" value="montoAPagar = importeVenta - montoDescuento" style="rounded=0;whiteSpace=wrap;html=1;" parent="1" vertex="1">
                    <mxGeometry x="3422.89" y="453" width="340" height="49" as="geometry"/>
                </mxCell>
                <mxCell id="118" value="" style="edgeStyle=none;html=1;entryX=0.5;entryY=0;entryDx=0;entryDy=0;" parent="1" source="111" target="113" edge="1">
                    <mxGeometry relative="1" as="geometry"/>
                </mxCell>
                <mxCell id="111" value="huevos" style="shape=trapezoid;perimeter=trapezoidPerimeter;whiteSpace=wrap;html=1;fixedSize=1;rounded=0;direction=west;" parent="1" vertex="1">
                    <mxGeometry x="2171" y="1628.5" width="125" height="42" as="geometry"/>
                </mxCell>
                <mxCell id="119" style="edgeStyle=none;html=1;exitX=0.5;exitY=1;exitDx=0;exitDy=0;" parent="1" source="113" target="114" edge="1">
                    <mxGeometry relative="1" as="geometry"/>
                </mxCell>
                <mxCell id="113" value="unidadHuevos = huevos % 12" style="rounded=0;whiteSpace=wrap;html=1;" parent="1" vertex="1">
                    <mxGeometry x="2134" y="1694.5" width="199" height="60" as="geometry"/>
                </mxCell>
                <mxCell id="129" style="edgeStyle=none;html=1;exitX=0.5;exitY=1;exitDx=0;exitDy=0;" parent="1" source="114" target="128" edge="1">
                    <mxGeometry relative="1" as="geometry"/>
                </mxCell>
                <mxCell id="114" value="cajaHuevos = (huevos - conversionHuevos) / 12" style="rounded=0;whiteSpace=wrap;html=1;" parent="1" vertex="1">
                    <mxGeometry x="2092" y="1778.5" width="283" height="60" as="geometry"/>
                </mxCell>
                <mxCell id="125" style="edgeStyle=none;html=1;exitX=0.5;exitY=1;exitDx=0;exitDy=0;" parent="1" source="120" target="121" edge="1">
                    <mxGeometry relative="1" as="geometry"/>
                </mxCell>
                <mxCell id="120" value="montoCajaHuevos = 100" style="rounded=0;whiteSpace=wrap;html=1;" parent="1" vertex="1">
                    <mxGeometry x="2156" y="1368" width="155" height="60" as="geometry"/>
                </mxCell>
                <mxCell id="126" style="edgeStyle=none;html=1;exitX=0.5;exitY=1;exitDx=0;exitDy=0;" parent="1" source="121" target="105" edge="1">
                    <mxGeometry relative="1" as="geometry"/>
                </mxCell>
                <mxCell id="121" value="montoUnidadHuevos = 12" style="rounded=0;whiteSpace=wrap;html=1;" parent="1" vertex="1">
                    <mxGeometry x="2156" y="1457" width="155" height="60" as="geometry"/>
                </mxCell>
                <mxCell id="133" style="edgeStyle=none;html=1;exitX=0.5;exitY=1;exitDx=0;exitDy=0;entryX=0.5;entryY=0;entryDx=0;entryDy=0;" parent="1" source="128" target="130" edge="1">
                    <mxGeometry relative="1" as="geometry"/>
                </mxCell>
                <mxCell id="128" value="totalAPagar = (cajaHuevos * montoCajaHuevos) + (unidadHuevos * montoUnidadHuevos)" style="rounded=0;whiteSpace=wrap;html=1;" parent="1" vertex="1">
                    <mxGeometry x="1985" y="1863" width="497" height="59" as="geometry"/>
                </mxCell>
                <mxCell id="135" style="edgeStyle=none;html=1;exitX=0.5;exitY=1;exitDx=0;exitDy=0;entryX=0.5;entryY=0;entryDx=0;entryDy=0;" parent="1" source="130" target="134" edge="1">
                    <mxGeometry relative="1" as="geometry"/>
                </mxCell>
                <mxCell id="130" value="&quot;La cantidad total a pagar es de $&quot;, totalAPagar" style="shape=trapezoid;perimeter=trapezoidPerimeter;whiteSpace=wrap;html=1;fixedSize=1;rounded=0;" parent="1" vertex="1">
                    <mxGeometry x="2120" y="1948" width="227" height="59" as="geometry"/>
                </mxCell>
                <mxCell id="134" value="F" style="ellipse;whiteSpace=wrap;html=1;aspect=fixed;rounded=1;shadow=0;sketch=0;fontSize=16.7;" parent="1" vertex="1">
                    <mxGeometry x="2211" y="2037" width="45" height="45" as="geometry"/>
                </mxCell>
                <UserObject label="&lt;font color=&quot;#000000&quot;&gt;13)&lt;/font&gt;" lucidchartObjectId="nJz2FS3Vk8pQ" id="136">
                    <mxCell style="html=1;overflow=block;blockSpacing=1;whiteSpace=wrap;fontSize=16.7;fontStyle=1;spacing=3.8;strokeOpacity=0;fillOpacity=100;rounded=1;absoluteArcSize=1;arcSize=9;fillColor=#eeeeee;strokeWidth=0.8;sketch=0;strokeColor=#36393d;" parent="1" vertex="1">
                        <mxGeometry x="2505" y="1260" width="45" height="39" as="geometry"/>
                    </mxCell>
                </UserObject>
                <mxCell id="145" style="edgeStyle=none;html=1;exitX=0.5;exitY=1;exitDx=0;exitDy=0;" parent="1" source="137" target="138" edge="1">
                    <mxGeometry relative="1" as="geometry"/>
                </mxCell>
                <mxCell id="137" value="I" style="ellipse;whiteSpace=wrap;html=1;aspect=fixed;rounded=1;shadow=0;sketch=0;fontSize=16.7;" parent="1" vertex="1">
                    <mxGeometry x="2722" y="1299" width="45" height="45" as="geometry"/>
                </mxCell>
                <mxCell id="146" style="edgeStyle=none;html=1;exitX=0.5;exitY=1;exitDx=0;exitDy=0;" parent="1" source="138" target="139" edge="1">
                    <mxGeometry relative="1" as="geometry"/>
                </mxCell>
                <mxCell id="138" value="&quot;Ingrese el monto a retirar del cajero automático&quot;" style="shape=trapezoid;perimeter=trapezoidPerimeter;whiteSpace=wrap;html=1;fixedSize=1;rounded=0;" parent="1" vertex="1">
                    <mxGeometry x="2626.5" y="1370" width="236" height="59" as="geometry"/>
                </mxCell>
                <mxCell id="147" style="edgeStyle=none;html=1;exitX=0.5;exitY=0;exitDx=0;exitDy=0;" parent="1" source="139" target="140" edge="1">
                    <mxGeometry relative="1" as="geometry"/>
                </mxCell>
                <mxCell id="139" value="monto" style="shape=trapezoid;perimeter=trapezoidPerimeter;whiteSpace=wrap;html=1;fixedSize=1;rounded=0;direction=west;" parent="1" vertex="1">
                    <mxGeometry x="2682" y="1455" width="125" height="42" as="geometry"/>
                </mxCell>
                <mxCell id="148" style="edgeStyle=none;html=1;exitX=0.5;exitY=1;exitDx=0;exitDy=0;" parent="1" source="140" target="141" edge="1">
                    <mxGeometry relative="1" as="geometry"/>
                </mxCell>
                <mxCell id="140" value="mil = (monto - (monto % 1000)) / 1000" style="rounded=0;whiteSpace=wrap;html=1;" parent="1" vertex="1">
                    <mxGeometry x="2630" y="1523" width="229" height="60" as="geometry"/>
                </mxCell>
                <mxCell id="149" style="edgeStyle=none;html=1;exitX=0.5;exitY=1;exitDx=0;exitDy=0;" parent="1" source="141" target="142" edge="1">
                    <mxGeometry relative="1" as="geometry"/>
                </mxCell>
                <mxCell id="141" value="montoRestante = monto % 1000" style="rounded=0;whiteSpace=wrap;html=1;" parent="1" vertex="1">
                    <mxGeometry x="2623" y="1610.5" width="243" height="60" as="geometry"/>
                </mxCell>
                <mxCell id="151" style="edgeStyle=none;html=1;exitX=0.5;exitY=1;exitDx=0;exitDy=0;entryX=0.5;entryY=0;entryDx=0;entryDy=0;" parent="1" source="142" target="150" edge="1">
                    <mxGeometry relative="1" as="geometry"/>
                </mxCell>
                <mxCell id="142" value="quinientos = (montoRestante - (montoRestante % 500)) / 500" style="rounded=0;whiteSpace=wrap;html=1;" parent="1" vertex="1">
                    <mxGeometry x="2576" y="1698" width="337" height="60" as="geometry"/>
                </mxCell>
                <mxCell id="154" style="edgeStyle=none;html=1;exitX=0.5;exitY=1;exitDx=0;exitDy=0;" parent="1" source="150" target="152" edge="1">
                    <mxGeometry relative="1" as="geometry"/>
                </mxCell>
                <mxCell id="150" value="montoRestanteDos = montoRestante % 500" style="rounded=0;whiteSpace=wrap;html=1;" parent="1" vertex="1">
                    <mxGeometry x="2572" y="1783" width="345" height="60" as="geometry"/>
                </mxCell>
                <mxCell id="155" style="edgeStyle=none;html=1;exitX=0.5;exitY=1;exitDx=0;exitDy=0;" parent="1" source="152" target="153" edge="1">
                    <mxGeometry relative="1" as="geometry"/>
                </mxCell>
                <mxCell id="152" value="doscientos = (montoRestanteDos - (montoRestanteDos % 200)) / 200" style="rounded=0;whiteSpace=wrap;html=1;" parent="1" vertex="1">
                    <mxGeometry x="2567" y="1868" width="355" height="60" as="geometry"/>
                </mxCell>
                <mxCell id="157" style="edgeStyle=none;html=1;exitX=0.5;exitY=1;exitDx=0;exitDy=0;" parent="1" source="153" target="156" edge="1">
                    <mxGeometry relative="1" as="geometry"/>
                </mxCell>
                <mxCell id="153" value="montoRestanteTres = montoRestanteDos % 200" style="rounded=0;whiteSpace=wrap;html=1;" parent="1" vertex="1">
                    <mxGeometry x="2543" y="1954" width="405" height="60" as="geometry"/>
                </mxCell>
                <mxCell id="156" value="cien = (montoRestanteTres - (montoRestanteTres % 100)) / 100" style="rounded=0;whiteSpace=wrap;html=1;" parent="1" vertex="1">
                    <mxGeometry x="2567" y="2040" width="355" height="60" as="geometry"/>
                </mxCell>
                <mxCell id="158" value="F" style="ellipse;whiteSpace=wrap;html=1;aspect=fixed;rounded=1;shadow=0;sketch=0;fontSize=16.7;" parent="1" vertex="1">
                    <mxGeometry x="2722" y="2301" width="45" height="45" as="geometry"/>
                </mxCell>
                <mxCell id="161" value="&lt;p style=&quot;line-height: 0.3&quot;&gt;&lt;/p&gt;&lt;h1 style=&quot;font-size: 30px&quot;&gt;&lt;font style=&quot;font-size: 30px&quot;&gt;TP Nro 1 - Programación I&lt;/font&gt;&lt;/h1&gt;&lt;p style=&quot;font-size: 30px&quot;&gt;&lt;font style=&quot;font-size: 30px&quot;&gt;Nahuel Alvez - TUP - UTN Pacheco&lt;/font&gt;&lt;/p&gt;&lt;p&gt;&lt;/p&gt;" style="text;html=1;fillColor=none;spacing=5;spacingTop=-20;whiteSpace=wrap;overflow=hidden;rounded=0;fontSize=37;align=center;" vertex="1" parent="1">
                    <mxGeometry x="70.96" y="965" width="408.04" height="171" as="geometry"/>
                </mxCell>
            </root>
        </mxGraphModel>
    </diagram>
</mxfile>